<svg width="631" height="397" viewBox="0 0 631 397" fill="none" xmlns="http://www.w3.org/2000/svg">
<g filter="url(#filter0_f_2_109)">
<rect x="130" y="130" width="402" height="137" rx="68.5" fill="white" fill-opacity="0.12"/>
</g>
<mask id="mask0_2_109" style="mask-type:alpha" maskUnits="userSpaceOnUse" x="140" y="141" width="382" height="115">
<rect x="143" y="144" width="376" height="109" rx="54.5" fill="#6139F1" stroke="#40288B" stroke-width="6"/>
</mask>
<g mask="url(#mask0_2_109)">
<g filter="url(#filter1_f_2_109)">
<ellipse cx="331" cy="295" rx="161" ry="94" fill="#9771F9"/>
</g>
</g>
<path d="M319.485 199.148C320.829 199.388 321.969 200.096 322.905 201.272C323.841 202.448 324.309 203.78 324.309 205.268C324.309 206.54 323.973 207.692 323.301 208.724C322.653 209.732 321.705 210.536 320.457 211.136C319.209 211.712 317.757 212 316.101 212H306.093V186.98H315.633C317.337 186.98 318.801 187.268 320.025 187.844C321.249 188.42 322.173 189.2 322.797 190.184C323.421 191.144 323.733 192.224 323.733 193.424C323.733 194.864 323.349 196.064 322.581 197.024C321.813 197.984 320.781 198.692 319.485 199.148ZM310.197 197.492H315.273C316.617 197.492 317.661 197.192 318.405 196.592C319.173 195.968 319.557 195.08 319.557 193.928C319.557 192.8 319.173 191.924 318.405 191.3C317.661 190.652 316.617 190.328 315.273 190.328H310.197V197.492ZM315.741 208.652C317.133 208.652 318.225 208.316 319.017 207.644C319.809 206.972 320.205 206.036 320.205 204.836C320.205 203.612 319.785 202.64 318.945 201.92C318.105 201.2 316.989 200.84 315.597 200.84H310.197V208.652H315.741ZM337.372 212.324C335.5 212.324 333.808 211.904 332.296 211.064C330.784 210.2 329.596 209 328.732 207.464C327.868 205.904 327.436 204.104 327.436 202.064C327.436 200.048 327.88 198.26 328.768 196.7C329.656 195.14 330.868 193.94 332.404 193.1C333.94 192.26 335.656 191.84 337.552 191.84C339.448 191.84 341.164 192.26 342.7 193.1C344.236 193.94 345.448 195.14 346.336 196.7C347.224 198.26 347.668 200.048 347.668 202.064C347.668 204.08 347.212 205.868 346.3 207.428C345.388 208.988 344.14 210.2 342.556 211.064C340.996 211.904 339.268 212.324 337.372 212.324ZM337.372 208.76C338.428 208.76 339.412 208.508 340.324 208.004C341.26 207.5 342.016 206.744 342.592 205.736C343.168 204.728 343.456 203.504 343.456 202.064C343.456 200.624 343.18 199.412 342.628 198.428C342.076 197.42 341.344 196.664 340.432 196.16C339.52 195.656 338.536 195.404 337.48 195.404C336.424 195.404 335.44 195.656 334.528 196.16C333.64 196.664 332.932 197.42 332.404 198.428C331.876 199.412 331.612 200.624 331.612 202.064C331.612 204.2 332.152 205.856 333.232 207.032C334.336 208.184 335.716 208.76 337.372 208.76ZM360.329 212.324C358.457 212.324 356.765 211.904 355.253 211.064C353.741 210.2 352.553 209 351.689 207.464C350.825 205.904 350.393 204.104 350.393 202.064C350.393 200.048 350.837 198.26 351.725 196.7C352.613 195.14 353.825 193.94 355.361 193.1C356.897 192.26 358.613 191.84 360.509 191.84C362.405 191.84 364.121 192.26 365.657 193.1C367.193 193.94 368.405 195.14 369.293 196.7C370.181 198.26 370.625 200.048 370.625 202.064C370.625 204.08 370.169 205.868 369.257 207.428C368.345 208.988 367.097 210.2 365.513 211.064C363.953 211.904 362.225 212.324 360.329 212.324ZM360.329 208.76C361.385 208.76 362.369 208.508 363.281 208.004C364.217 207.5 364.973 206.744 365.549 205.736C366.125 204.728 366.413 203.504 366.413 202.064C366.413 200.624 366.137 199.412 365.585 198.428C365.033 197.42 364.301 196.664 363.389 196.16C362.477 195.656 361.493 195.404 360.437 195.404C359.381 195.404 358.397 195.656 357.485 196.16C356.597 196.664 355.889 197.42 355.361 198.428C354.833 199.412 354.569 200.624 354.569 202.064C354.569 204.2 355.109 205.856 356.189 207.032C357.293 208.184 358.673 208.76 360.329 208.76ZM381.882 212.324C380.322 212.324 378.918 212.048 377.67 211.496C376.446 210.92 375.474 210.152 374.754 209.192C374.034 208.208 373.65 207.116 373.602 205.916H377.85C377.922 206.756 378.318 207.464 379.038 208.04C379.782 208.592 380.706 208.868 381.81 208.868C382.962 208.868 383.85 208.652 384.474 208.22C385.122 207.764 385.446 207.188 385.446 206.492C385.446 205.748 385.086 205.196 384.366 204.836C383.67 204.476 382.554 204.08 381.018 203.648C379.53 203.24 378.318 202.844 377.382 202.46C376.446 202.076 375.63 201.488 374.934 200.696C374.262 199.904 373.926 198.86 373.926 197.564C373.926 196.508 374.238 195.548 374.862 194.684C375.486 193.796 376.374 193.1 377.526 192.596C378.702 192.092 380.046 191.84 381.558 191.84C383.814 191.84 385.626 192.416 386.994 193.568C388.386 194.696 389.13 196.244 389.226 198.212H385.122C385.05 197.324 384.69 196.616 384.042 196.088C383.394 195.56 382.518 195.296 381.414 195.296C380.334 195.296 379.506 195.5 378.93 195.908C378.354 196.316 378.066 196.856 378.066 197.528C378.066 198.056 378.258 198.5 378.642 198.86C379.026 199.22 379.494 199.508 380.046 199.724C380.598 199.916 381.414 200.168 382.494 200.48C383.934 200.864 385.11 201.26 386.022 201.668C386.958 202.052 387.762 202.628 388.434 203.396C389.106 204.164 389.454 205.184 389.478 206.456C389.478 207.584 389.166 208.592 388.542 209.48C387.918 210.368 387.03 211.064 385.878 211.568C384.75 212.072 383.418 212.324 381.882 212.324ZM398.701 195.512V206.492C398.701 207.236 398.869 207.776 399.205 208.112C399.565 208.424 400.165 208.58 401.005 208.58H403.525V212H400.285C398.437 212 397.021 211.568 396.037 210.704C395.053 209.84 394.561 208.436 394.561 206.492V195.512H392.221V192.164H394.561V187.232H398.701V192.164H403.525V195.512H398.701Z" fill="white"/>
<g filter="url(#filter2_d_2_109)">
<path d="M272.856 200.193C272.807 200.145 272.755 200.099 272.706 200.052C272.608 199.962 272.512 199.871 272.413 199.782C272.351 199.727 272.289 199.674 272.228 199.619C272.138 199.54 272.051 199.461 271.96 199.386C271.893 199.329 271.825 199.273 271.758 199.216C271.672 199.144 271.588 199.074 271.501 199.004C271.429 198.945 271.357 198.891 271.287 198.832C271.203 198.765 271.119 198.699 271.035 198.633C270.961 198.577 270.886 198.52 270.81 198.464C270.728 198.402 270.646 198.339 270.562 198.279C270.485 198.222 270.406 198.167 270.327 198.111C270.245 198.053 270.163 197.994 270.08 197.938C270 197.883 269.919 197.828 269.839 197.773C269.758 197.718 269.676 197.664 269.594 197.61C269.511 197.556 269.427 197.502 269.343 197.451C269.263 197.4 269.181 197.348 269.1 197.299C269.014 197.245 268.929 197.194 268.843 197.143C268.763 197.095 268.682 197.047 268.601 196.999C268.514 196.947 268.427 196.898 268.339 196.848C268.259 196.802 268.178 196.757 268.098 196.712C268.009 196.663 267.919 196.615 267.829 196.567C267.748 196.524 267.668 196.481 267.587 196.44C267.496 196.392 267.404 196.346 267.313 196.3C267.234 196.26 267.153 196.221 267.073 196.181C266.979 196.135 266.886 196.09 266.792 196.046C266.713 196.008 266.634 195.972 266.554 195.936C266.458 195.893 266.362 195.849 266.266 195.808C266.187 195.773 266.108 195.739 266.029 195.707C265.932 195.665 265.834 195.624 265.736 195.583C265.657 195.551 265.58 195.52 265.502 195.489C265.402 195.45 265.303 195.41 265.202 195.372C265.125 195.343 265.047 195.314 264.97 195.287C264.869 195.249 264.766 195.211 264.664 195.175C264.588 195.148 264.511 195.122 264.436 195.097C264.331 195.061 264.227 195.025 264.122 194.992C264.048 194.968 263.973 194.946 263.899 194.922C263.793 194.887 263.685 194.855 263.579 194.822C263.505 194.8 263.431 194.78 263.359 194.759C263.25 194.728 263.142 194.696 263.032 194.666C262.96 194.648 262.89 194.629 262.818 194.61C262.707 194.581 262.593 194.552 262.48 194.524C262.414 194.507 262.345 194.493 262.278 194.476C262.162 194.449 262.045 194.421 261.929 194.396C261.867 194.382 261.803 194.37 261.74 194.356C261.618 194.331 261.497 194.305 261.373 194.281C261.329 194.272 261.283 194.265 261.238 194.257C260.952 194.204 260.664 194.154 260.376 194.113C260.342 194.108 260.306 194.101 260.272 194.096C260.177 194.082 260.083 194.07 259.989 194.058C259.895 194.046 259.802 194.032 259.708 194.022C259.624 194.012 259.54 194.003 259.454 193.995C259.35 193.983 259.245 193.971 259.141 193.962C259.062 193.955 258.983 193.948 258.904 193.942C258.793 193.933 258.683 193.923 258.572 193.914C258.498 193.909 258.423 193.906 258.349 193.9C258.232 193.894 258.117 193.887 258.001 193.882C257.931 193.878 257.862 193.876 257.792 193.875C257.67 193.87 257.55 193.866 257.429 193.864C257.363 193.864 257.3 193.864 257.235 193.863C257.108 193.863 256.981 193.859 256.855 193.861C256.795 193.861 256.736 193.861 256.676 193.863C256.543 193.863 256.411 193.866 256.277 193.87C256.26 193.87 256.241 193.87 256.224 193.87C249.503 177.004 232.975 165 213.786 165H205V173.786C205 192.977 217.004 209.503 233.873 216.224C233.873 216.241 233.873 216.26 233.873 216.277C233.87 216.409 233.866 216.543 233.866 216.675C233.866 216.735 233.864 216.793 233.864 216.853C233.864 216.98 233.864 217.106 233.866 217.232C233.866 217.297 233.866 217.362 233.868 217.427C233.87 217.549 233.875 217.669 233.878 217.79C233.88 217.86 233.883 217.931 233.885 218.001C233.89 218.116 233.897 218.232 233.904 218.347C233.909 218.423 233.912 218.496 233.918 218.572C233.924 218.681 233.935 218.793 233.943 218.902C233.95 218.981 233.955 219.062 233.964 219.141C233.974 219.245 233.986 219.348 233.996 219.452C234.005 219.538 234.014 219.622 234.024 219.708C234.036 219.802 234.048 219.895 234.06 219.989C234.072 220.083 234.084 220.177 234.097 220.272C234.103 220.306 234.108 220.342 234.115 220.376C234.157 220.664 234.205 220.952 234.259 221.238C234.267 221.283 234.274 221.329 234.283 221.373C234.307 221.495 234.332 221.618 234.358 221.74C234.372 221.804 234.384 221.865 234.397 221.929C234.423 222.045 234.45 222.162 234.478 222.278C234.493 222.345 234.509 222.414 234.526 222.48C234.553 222.593 234.582 222.705 234.612 222.818C234.63 222.89 234.648 222.96 234.668 223.032C234.697 223.142 234.73 223.25 234.761 223.359C234.781 223.433 234.802 223.507 234.824 223.579C234.857 223.687 234.889 223.793 234.923 223.899C234.947 223.975 234.97 224.048 234.994 224.122C235.028 224.227 235.064 224.331 235.098 224.436C235.124 224.511 235.15 224.588 235.177 224.664C235.213 224.766 235.251 224.869 235.288 224.97C235.318 225.047 235.345 225.125 235.374 225.2C235.412 225.301 235.451 225.4 235.492 225.502C235.523 225.579 235.554 225.657 235.587 225.735C235.626 225.832 235.669 225.932 235.71 226.029C235.744 226.108 235.777 226.187 235.811 226.266C235.854 226.362 235.897 226.458 235.94 226.554C235.976 226.633 236.012 226.713 236.049 226.792C236.094 226.886 236.138 226.98 236.185 227.073C236.224 227.153 236.264 227.232 236.303 227.313C236.349 227.405 236.395 227.496 236.443 227.587C236.485 227.668 236.527 227.748 236.57 227.829C236.618 227.918 236.666 228.009 236.716 228.098C236.76 228.178 236.805 228.259 236.851 228.339C236.901 228.427 236.951 228.514 237.002 228.601C237.05 228.682 237.098 228.763 237.146 228.843C237.197 228.929 237.249 229.014 237.302 229.1C237.352 229.182 237.403 229.263 237.454 229.343C237.508 229.427 237.561 229.51 237.614 229.594C237.667 229.676 237.722 229.756 237.777 229.839C237.831 229.919 237.885 230 237.941 230.08C237.998 230.163 238.056 230.245 238.114 230.327C238.169 230.406 238.226 230.483 238.282 230.562C238.344 230.646 238.406 230.728 238.467 230.81C238.524 230.886 238.579 230.961 238.637 231.035C238.702 231.119 238.769 231.203 238.836 231.287C238.892 231.359 238.949 231.431 239.007 231.501C239.077 231.587 239.149 231.672 239.22 231.758C239.276 231.825 239.331 231.893 239.389 231.96C239.466 232.049 239.545 232.138 239.622 232.228C239.677 232.289 239.73 232.351 239.785 232.413C239.874 232.51 239.965 232.608 240.056 232.706C240.102 232.755 240.148 232.807 240.196 232.856C240.335 233.002 240.477 233.148 240.62 233.292C242.073 234.745 243.701 235.991 245.459 237C241.643 230.349 244.109 224.902 248.778 219.398C249.4 219.423 250.024 219.435 250.651 219.435H257.343C258.494 219.435 259.435 218.494 259.435 217.343V210.651C259.435 210.024 259.422 209.4 259.398 208.778C264.9 204.11 270.349 201.643 276.998 205.457C275.987 203.699 274.745 202.073 273.292 200.62C273.148 200.476 273.002 200.335 272.856 200.196V200.193ZM217.557 177.558C220.503 174.612 225.296 174.612 228.244 177.558C229.246 178.56 229.944 179.813 230.261 181.184C230.855 183.745 230.101 186.384 228.244 188.242C226.386 190.1 223.747 190.854 221.185 190.259C219.814 189.942 218.56 189.244 217.559 188.242C214.613 185.296 214.613 180.503 217.559 177.556L217.557 177.558Z" fill="white"/>
<path d="M275.622 234.801C268.021 234.801 261.802 228.583 261.802 220.981C261.802 220.386 262.288 219.901 262.881 219.901C270.483 219.901 276.702 226.12 276.702 233.722C276.702 234.317 276.215 234.801 275.622 234.801Z" fill="white"/>
</g>
<defs>
<filter id="filter0_f_2_109" x="0.699997" y="0.699997" width="660.6" height="395.6" filterUnits="userSpaceOnUse" color-interpolation-filters="sRGB">
<feFlood flood-opacity="0" result="BackgroundImageFix"/>
<feBlend mode="normal" in="SourceGraphic" in2="BackgroundImageFix" result="shape"/>
<feGaussianBlur stdDeviation="64.65" result="effect1_foregroundBlur_2_109"/>
</filter>
<filter id="filter1_f_2_109" x="49.7" y="80.7" width="562.6" height="428.6" filterUnits="userSpaceOnUse" color-interpolation-filters="sRGB">
<feFlood flood-opacity="0" result="BackgroundImageFix"/>
<feBlend mode="normal" in="SourceGraphic" in2="BackgroundImageFix" result="shape"/>
<feGaussianBlur stdDeviation="60.15" result="effect1_foregroundBlur_2_109"/>
</filter>
<filter id="filter2_d_2_109" x="193.7" y="153.7" width="94.5983" height="94.6" filterUnits="userSpaceOnUse" color-interpolation-filters="sRGB">
<feFlood flood-opacity="0" result="BackgroundImageFix"/>
<feColorMatrix in="SourceAlpha" type="matrix" values="0 0 0 0 0 0 0 0 0 0 0 0 0 0 0 0 0 0 127 0" result="hardAlpha"/>
<feOffset/>
<feGaussianBlur stdDeviation="5.65"/>
<feComposite in2="hardAlpha" operator="out"/>
<feColorMatrix type="matrix" values="0 0 0 0 1 0 0 0 0 1 0 0 0 0 1 0 0 0 0.35 0"/>
<feBlend mode="normal" in2="BackgroundImageFix" result="effect1_dropShadow_2_109"/>
<feBlend mode="normal" in="SourceGraphic" in2="effect1_dropShadow_2_109" result="shape"/>
</filter>
</defs>
</svg>
