<svg width="1008" height="1031" viewBox="0 0 1008 1031" fill="none" xmlns="http://www.w3.org/2000/svg">
<g filter="url(#filter0_d_1_10)">
<path d="M812.97 504.07C812.97 398.24 759.72 304.84 678.55 249.22C667.55 241.68 656.04 234.83 644.07 228.75C636.55 224.91 628.84 221.38 620.98 218.17C585.58 203.69 546.89 195.61 506.35 195.35C505.65 195.33 504.95 195.33 504.24 195.33C333.73 195.33 195.5 333.56 195.5 504.07C195.5 507.79 195.56 511.5 195.7 515.18C195.56 518.87 195.5 522.57 195.5 526.29C195.5 696.8 333.73 835.03 504.24 835.03C674.75 835.03 812.98 696.8 812.98 526.29C812.98 522.57 812.92 518.86 812.78 515.18C812.92 511.49 812.98 507.79 812.98 504.07H812.97ZM196.03 522.08C196.06 522.66 196.1 523.23 196.13 523.81C196.09 523.23 196.06 522.66 196.03 522.08ZM198.23 545.2C198.26 545.45 198.29 545.7 198.33 545.95C198.3 545.7 198.27 545.45 198.23 545.2ZM202.06 567.63C202.15 568.08 202.25 568.53 202.35 568.98C202.25 568.53 202.16 568.08 202.06 567.63ZM203.62 574.64C203.71 575.03 203.8 575.42 203.89 575.82C203.8 575.43 203.71 575.04 203.62 574.64ZM207.35 589.01C207.48 589.47 207.61 589.92 207.74 590.38C207.61 589.93 207.48 589.47 207.35 589.01ZM209.64 596.67C209.76 597.07 209.89 597.46 210.02 597.85C209.89 597.46 209.76 597.06 209.64 596.67ZM211.74 603.1C211.92 603.63 212.09 604.15 212.27 604.68C212.09 604.16 211.91 603.63 211.74 603.1ZM214.43 610.73C214.57 611.12 214.73 611.51 214.87 611.9C214.72 611.51 214.57 611.12 214.43 610.73ZM216.78 616.89C217.02 617.49 217.25 618.09 217.49 618.69C217.25 618.09 217.01 617.49 216.78 616.89ZM225.59 637.14C225.93 637.85 226.28 638.57 226.62 639.28C226.27 638.57 225.93 637.86 225.59 637.14ZM228.72 643.48C229.12 644.27 229.53 645.06 229.93 645.84C229.52 645.05 229.12 644.27 228.72 643.48ZM231.83 649.45C232.42 650.54 233.01 651.64 233.61 652.72C233.01 651.63 232.42 650.54 231.83 649.45ZM246.99 674.79C248.11 676.48 249.26 678.16 250.42 679.83C249.26 678.16 248.12 676.49 246.99 674.79ZM255.44 686.86C256.6 688.44 257.78 690 258.98 691.56C257.79 690 256.61 688.44 255.44 686.86ZM259.87 692.73C261.05 694.26 262.26 695.78 263.47 697.28C262.26 695.77 261.05 694.26 259.87 692.73ZM269.12 704.12C270.36 705.57 271.61 707.01 272.88 708.44C271.62 707.01 270.36 705.58 269.12 704.12ZM283.93 720.32C285.28 721.69 286.65 723.05 288.02 724.4C286.65 723.05 285.28 721.7 283.93 720.32ZM322.62 753.73C323.45 754.33 324.29 754.92 325.12 755.52C322.3 753.51 319.5 751.46 316.75 749.35C318.69 750.83 320.64 752.29 322.62 753.73ZM316.43 749.09C314.61 747.69 312.8 746.27 311 744.83C312.79 746.27 314.6 747.69 316.43 749.09ZM310.36 744.3C308.68 742.94 307.01 741.58 305.37 740.19C307.02 741.58 308.69 742.95 310.36 744.3ZM304.52 739.46C302.95 738.12 301.38 736.78 299.83 735.41C301.38 736.78 302.94 738.12 304.52 739.46ZM298.87 734.54C297.37 733.21 295.89 731.87 294.42 730.5C295.89 731.86 297.38 733.2 298.87 734.54ZM293.37 729.52C291.94 728.18 290.52 726.84 289.12 725.48C290.52 726.84 291.95 728.19 293.37 729.52ZM328.23 757.71C329.06 758.29 329.91 758.86 330.74 759.43C329.9 758.86 329.06 758.29 328.23 757.71ZM333.93 761.58C334.79 762.15 335.65 762.71 336.52 763.27C335.66 762.71 334.79 762.15 333.93 761.58ZM339.65 765.28C340.59 765.87 341.53 766.46 342.48 767.05C341.53 766.47 340.59 765.88 339.65 765.28ZM353.02 773.27C353.52 773.55 354.02 773.82 354.51 774.1C354.01 773.82 353.51 773.55 353.02 773.27ZM359.12 776.61C359.54 776.84 359.97 777.07 360.39 777.29C359.96 777.07 359.54 776.84 359.12 776.61ZM366.19 780.27C366.52 780.44 366.85 780.6 367.19 780.76C366.86 780.6 366.52 780.43 366.19 780.27ZM372.12 783.15C372.66 783.41 373.2 783.66 373.74 783.92C373.2 783.67 372.66 783.41 372.12 783.15ZM379.3 786.45C379.76 786.66 380.23 786.86 380.7 787.06C380.23 786.86 379.77 786.66 379.3 786.45ZM392.72 792.02C393.01 792.13 393.3 792.25 393.6 792.36C393.31 792.25 393.02 792.13 392.72 792.02ZM399.66 794.62C399.97 794.73 400.28 794.85 400.6 794.96C400.29 794.85 399.98 794.73 399.66 794.62ZM406.72 797.06C407.04 797.17 407.35 797.27 407.67 797.38C407.35 797.28 407.03 797.17 406.72 797.06ZM413.88 799.35C414.18 799.44 414.49 799.54 414.79 799.63C414.49 799.54 414.18 799.45 413.88 799.35ZM421.14 801.47C421.41 801.54 421.68 801.62 421.94 801.69C421.67 801.62 421.4 801.54 421.14 801.47ZM428.49 803.42C428.69 803.47 428.89 803.52 429.1 803.57C428.9 803.52 428.69 803.47 428.49 803.42ZM450.55 808.14C450.65 808.16 450.75 808.18 450.84 808.19C450.74 808.17 450.64 808.15 450.55 808.14ZM472.87 811.21C473.2 811.24 473.52 811.28 473.85 811.31C473.52 811.28 473.2 811.25 472.87 811.21ZM496.28 812.68C496.47 812.68 496.66 812.68 496.85 812.69C496.66 812.69 496.47 812.69 496.28 812.68Z" fill="url(#paint0_linear_1_10)"/>
<path d="M196.6 530.23C196.61 530.38 196.62 530.53 196.63 530.68M197.3 537.5C197.36 538.03 197.42 538.57 197.48 539.1M199.32 552.69C199.4 553.18 199.48 553.67 199.56 554.16M200.57 560.02C200.63 560.35 200.69 560.68 200.75 561.01M205.51 582.3C205.62 582.72 205.73 583.13 205.84 583.55M219.86 624.46C220.04 624.88 220.22 625.29 220.4 625.71M222.44 630.35C222.75 631.04 223.06 631.73 223.38 632.42M235.58 656.25C236.1 657.16 236.62 658.07 237.15 658.98M238.71 661.63C239.64 663.2 240.59 664.76 241.55 666.31M242.97 668.59C244.08 670.35 245.21 672.09 246.35 673.82M251.15 680.88C252.29 682.51 253.46 684.13 254.63 685.74M264.43 698.48C265.64 699.97 266.87 701.44 268.11 702.91M273.93 709.64C275.2 711.06 276.49 712.47 277.79 713.87M278.87 715.04C280.18 716.44 281.51 717.82 282.84 719.19M385.94 789.3C386.31 789.45 386.68 789.61 387.05 789.76M435.91 805.2C436 805.22 436.1 805.24 436.19 805.26M457.81 809.32C458.03 809.35 458.26 809.39 458.48 809.42M465.27 810.35C465.56 810.39 465.86 810.42 466.15 810.46M480.58 811.89C480.91 811.91 481.23 811.94 481.56 811.96M488.39 812.38C488.67 812.39 488.96 812.41 489.24 812.42M812.97 504.07C812.97 398.24 759.72 304.84 678.55 249.22C667.55 241.68 656.04 234.83 644.07 228.75C636.55 224.91 628.84 221.38 620.98 218.17C585.58 203.69 546.89 195.61 506.35 195.35C505.65 195.33 504.95 195.33 504.24 195.33C333.73 195.33 195.5 333.56 195.5 504.07C195.5 507.79 195.56 511.5 195.7 515.18C195.56 518.87 195.5 522.57 195.5 526.29C195.5 696.8 333.73 835.03 504.24 835.03C674.75 835.03 812.98 696.8 812.98 526.29C812.98 522.57 812.92 518.86 812.78 515.18C812.92 511.49 812.98 507.79 812.98 504.07H812.97ZM196.03 522.08C196.06 522.66 196.1 523.23 196.13 523.81C196.09 523.23 196.06 522.66 196.03 522.08ZM198.23 545.2C198.26 545.45 198.29 545.7 198.33 545.95C198.3 545.7 198.27 545.45 198.23 545.2ZM202.06 567.63C202.15 568.08 202.25 568.53 202.35 568.98C202.25 568.53 202.16 568.08 202.06 567.63ZM203.62 574.64C203.71 575.03 203.8 575.42 203.89 575.82C203.8 575.43 203.71 575.04 203.62 574.64ZM207.35 589.01C207.48 589.47 207.61 589.92 207.74 590.38C207.61 589.93 207.48 589.47 207.35 589.01ZM209.64 596.67C209.76 597.07 209.89 597.46 210.02 597.85C209.89 597.46 209.76 597.06 209.64 596.67ZM211.74 603.1C211.92 603.63 212.09 604.15 212.27 604.68C212.09 604.16 211.91 603.63 211.74 603.1ZM214.43 610.73C214.57 611.12 214.73 611.51 214.87 611.9C214.72 611.51 214.57 611.12 214.43 610.73ZM216.78 616.89C217.02 617.49 217.25 618.09 217.49 618.69C217.25 618.09 217.01 617.49 216.78 616.89ZM225.59 637.14C225.93 637.85 226.28 638.57 226.62 639.28C226.27 638.57 225.93 637.86 225.59 637.14ZM228.72 643.48C229.12 644.27 229.53 645.06 229.93 645.84C229.52 645.05 229.12 644.27 228.72 643.48ZM231.83 649.45C232.42 650.54 233.01 651.64 233.61 652.72C233.01 651.63 232.42 650.54 231.83 649.45ZM246.99 674.79C248.11 676.48 249.26 678.16 250.42 679.83C249.26 678.16 248.12 676.49 246.99 674.79ZM255.44 686.86C256.6 688.44 257.78 690 258.98 691.56C257.79 690 256.61 688.44 255.44 686.86ZM259.87 692.73C261.05 694.26 262.26 695.78 263.47 697.28C262.26 695.77 261.05 694.26 259.87 692.73ZM269.12 704.12C270.36 705.57 271.61 707.01 272.88 708.44C271.62 707.01 270.36 705.58 269.12 704.12ZM283.93 720.32C285.28 721.69 286.65 723.05 288.02 724.4C286.65 723.05 285.28 721.7 283.93 720.32ZM322.62 753.73C323.45 754.33 324.29 754.92 325.12 755.52C322.3 753.51 319.5 751.46 316.75 749.35C318.69 750.83 320.64 752.29 322.62 753.73ZM316.43 749.09C314.61 747.69 312.8 746.27 311 744.83C312.79 746.27 314.6 747.69 316.43 749.09ZM310.36 744.3C308.68 742.94 307.01 741.58 305.37 740.19C307.02 741.58 308.69 742.95 310.36 744.3ZM304.52 739.46C302.95 738.12 301.38 736.78 299.83 735.41C301.38 736.78 302.94 738.12 304.52 739.46ZM298.87 734.54C297.37 733.21 295.89 731.87 294.42 730.5C295.89 731.86 297.38 733.2 298.87 734.54ZM293.37 729.52C291.94 728.18 290.52 726.84 289.12 725.48C290.52 726.84 291.95 728.19 293.37 729.52ZM328.23 757.71C329.06 758.29 329.91 758.86 330.74 759.43C329.9 758.86 329.06 758.29 328.23 757.71ZM333.93 761.58C334.79 762.15 335.65 762.71 336.52 763.27C335.66 762.71 334.79 762.15 333.93 761.58ZM339.65 765.28C340.59 765.87 341.53 766.46 342.48 767.05C341.53 766.47 340.59 765.88 339.65 765.28ZM353.02 773.27C353.52 773.55 354.02 773.82 354.51 774.1C354.01 773.82 353.51 773.55 353.02 773.27ZM359.12 776.61C359.54 776.84 359.97 777.07 360.39 777.29C359.96 777.07 359.54 776.84 359.12 776.61ZM366.19 780.27C366.52 780.44 366.85 780.6 367.19 780.76C366.86 780.6 366.52 780.43 366.19 780.27ZM372.12 783.15C372.66 783.41 373.2 783.66 373.74 783.92C373.2 783.67 372.66 783.41 372.12 783.15ZM379.3 786.45C379.76 786.66 380.23 786.86 380.7 787.06C380.23 786.86 379.77 786.66 379.3 786.45ZM392.72 792.02C393.01 792.13 393.3 792.25 393.6 792.36C393.31 792.25 393.02 792.13 392.72 792.02ZM399.66 794.62C399.97 794.73 400.28 794.85 400.6 794.96C400.29 794.85 399.98 794.73 399.66 794.62ZM406.72 797.06C407.04 797.17 407.35 797.27 407.67 797.38C407.35 797.28 407.03 797.17 406.72 797.06ZM413.88 799.35C414.18 799.44 414.49 799.54 414.79 799.63C414.49 799.54 414.18 799.45 413.88 799.35ZM421.14 801.47C421.41 801.54 421.68 801.62 421.94 801.69C421.67 801.62 421.4 801.54 421.14 801.47ZM428.49 803.42C428.69 803.47 428.89 803.52 429.1 803.57C428.9 803.52 428.69 803.47 428.49 803.42ZM450.55 808.14C450.65 808.16 450.75 808.18 450.84 808.19C450.74 808.17 450.64 808.15 450.55 808.14ZM472.87 811.21C473.2 811.24 473.52 811.28 473.85 811.31C473.52 811.28 473.2 811.25 472.87 811.21ZM496.28 812.68C496.47 812.68 496.66 812.68 496.85 812.69C496.66 812.69 496.47 812.69 496.28 812.68Z" stroke="#FFA300" stroke-width="30" stroke-miterlimit="10"/>
</g>
<path d="M821.05 503.78C821.05 507.6 820.99 511.4 820.84 515.19C814.84 684.88 675.38 820.6 504.23 820.6C458.58 820.6 415.19 810.95 375.98 793.56C363.37 787.98 351.2 781.59 339.53 774.47C332.1 769.94 324.87 765.11 317.85 760C285.32 736.29 257.47 706.54 235.98 672.4C207.1 626.58 189.66 572.85 187.62 515.2C187.48 511.42 187.41 507.61 187.41 503.79C187.41 328.82 329.25 186.97 504.23 186.97C504.95 186.97 505.68 186.97 506.39 186.99C547.99 187.26 587.69 195.55 624.02 210.41C632.09 213.7 640 217.33 647.72 221.26C660 227.51 671.82 234.53 683.1 242.27C766.4 299.34 821.04 395.18 821.04 503.79L821.05 503.78Z" fill="url(#paint1_linear_1_10)"/>
<path d="M821.05 503.78C821.05 505.64 821.03 507.51 821 509.37C819.09 403.16 764.91 309.72 683.11 253.67C671.82 245.93 660.01 238.91 647.73 232.66C640.01 228.72 632.11 225.1 624.03 221.81C587.7 206.96 548 198.66 506.4 198.39C505.68 198.37 504.96 198.37 504.24 198.37C331.17 198.37 190.51 337.15 187.48 509.5C187.44 507.6 187.43 505.69 187.43 503.78C187.43 328.81 329.27 186.96 504.25 186.96C504.97 186.96 505.7 186.96 506.41 186.98C548.01 187.25 587.71 195.54 624.04 210.4C632.11 213.69 640.02 217.32 647.74 221.25C660.02 227.5 671.84 234.52 683.12 242.26C766.42 299.33 821.06 395.17 821.06 503.78H821.05Z" fill="#FCE37C"/>
<path d="M821.05 515.19C821.05 519.01 820.99 522.81 820.84 526.6C814.84 696.29 675.38 832.01 504.23 832.01C458.58 832.01 415.19 822.36 375.98 804.97C363.37 799.39 351.2 793 339.53 785.88C332.1 781.35 324.87 776.52 317.85 771.41C285.32 747.7 257.47 717.95 235.98 683.81C207.1 637.99 189.66 584.26 187.62 526.61C187.48 522.83 187.41 519.02 187.41 515.2C187.41 513.31 187.43 511.43 187.46 509.54C187.49 511.43 187.54 513.31 187.61 515.2C189.65 572.85 207.09 626.58 235.97 672.4C257.47 706.54 285.31 736.3 317.84 760C324.86 765.11 332.09 769.95 339.52 774.47C351.2 781.59 363.36 787.98 375.97 793.56C415.17 810.95 458.57 820.6 504.22 820.6C675.37 820.6 814.83 684.88 820.83 515.19C820.9 513.25 820.96 511.32 820.98 509.37C821.02 511.31 821.03 513.24 821.03 515.19H821.05Z" fill="url(#paint2_linear_1_10)"/>
<path d="M821.05 526.59C821.05 701.56 679.21 843.41 504.23 843.41C329.25 843.41 187.41 701.57 187.41 526.59C187.41 522.77 187.47 518.97 187.62 515.18C193.62 684.87 333.08 820.59 504.23 820.59C675.38 820.59 814.84 684.87 820.84 515.18C820.98 518.96 821.05 522.77 821.05 526.59Z" fill="url(#paint3_linear_1_10)"/>
<path d="M730.53 503.78C730.53 507.87 730.42 511.94 730.2 516C727.25 460.14 704.09 408.05 664.25 368.2C621.51 325.46 564.68 301.92 504.23 301.92C443.78 301.92 386.95 325.46 344.21 368.2C304.36 408.05 281.21 460.14 278.26 516C278.04 511.94 277.93 507.87 277.93 503.78C277.93 443.33 301.47 386.5 344.21 343.76C386.95 301.02 443.78 277.48 504.23 277.48C564.68 277.48 621.51 301.02 664.25 343.76C706.99 386.5 730.53 443.33 730.53 503.78Z" fill="url(#paint4_linear_1_10)"/>
<path d="M730.21 516C727.26 571.86 704.1 623.95 664.26 663.8C621.52 706.54 564.69 730.08 504.24 730.08C443.79 730.08 386.96 706.54 344.22 663.8C304.37 623.95 281.22 571.86 278.27 516C281.22 460.14 304.38 408.05 344.22 368.2C386.96 325.46 443.79 301.92 504.24 301.92C564.69 301.92 621.52 325.46 664.26 368.2C704.11 408.05 727.26 460.14 730.21 516Z" fill="url(#paint5_linear_1_10)"/>
<path d="M730.21 530.68C727.26 586.54 704.1 638.63 664.26 678.48C621.52 721.22 564.69 744.76 504.24 744.76C443.79 744.76 386.96 721.22 344.22 678.48C304.37 638.63 281.22 586.54 278.27 530.68C278.4 528.23 278.57 525.78 278.78 523.35C283.29 576.42 306.13 625.71 344.23 663.81C386.97 706.55 443.8 730.09 504.25 730.09C564.7 730.09 621.53 706.55 664.27 663.81C702.37 625.71 725.21 576.42 729.72 523.35C729.93 525.78 730.1 528.23 730.23 530.68H730.21Z" fill="#FCE37C"/>
<path d="M344.21 663.8C350 669.59 356.06 675.04 362.35 680.11L317.85 759.99C285.32 736.28 257.47 706.53 235.98 672.39L289.66 576.03C300.64 608.73 319.11 638.7 344.22 663.8H344.21Z" fill="#FCE37C"/>
<path d="M624.03 210.4L579.54 290.26C555.67 281.86 530.29 277.49 504.24 277.49C486.68 277.49 469.42 279.48 452.73 283.35L506.41 186.99C548.01 187.26 587.71 195.55 624.04 210.41L624.03 210.4Z" fill="#FCE37C"/>
<path d="M383.61 695.35C395.26 702.73 407.53 708.98 420.27 714.07L375.99 793.56C363.38 787.98 351.21 781.59 339.54 774.47L383.61 695.35Z" fill="#FCE37C"/>
<g style="mix-blend-mode:soft-light" opacity="0.32">
<path d="M592.8 319.85C595.11 320.82 597.39 321.84 599.66 322.9C597.39 321.85 595.1 320.83 592.8 319.85Z" fill="white"/>
</g>
<path d="M683.11 242.26L638.81 321.78C627.71 313.53 615.94 306.37 603.65 300.35L647.72 221.25L683.1 242.26H683.11Z" fill="#FCE37C"/>
<path d="M389.55 632.57V650C435.47 650 474.77 617.02 482.73 571.79L485.28 557.3C458.67 553.95 432.08 550.89 405.73 547.22L389.55 632.57Z" fill="url(#paint6_linear_1_10)"/>
<path d="M496.51 494.76L496.07 477.76C469.5 477.34 448.61 463.03 422.34 459.69L405.74 547.22C432.09 550.88 458.68 553.95 485.29 557.3L485.78 554.49H557.32L568.05 494.75L566.62 484.41L496.51 494.75V494.76Z" fill="url(#paint7_linear_1_10)"/>
<path d="M422.33 459.69C448.61 463.03 472.34 478.1 498.92 478.52L502.59 459.7H602.03L613.12 396.74L611.72 386.89L498.24 393.19C460.66 395.28 429.34 422.71 422.33 459.69Z" fill="url(#paint8_linear_1_10)"/>
<path d="M606.75 379.7C606.03 379.45 605.26 379.32 604.44 379.32H485.16C455.72 379.32 430.53 400.45 425.42 429.44L389.81 631.13L389.56 632.58C400.8 632.58 411.65 630.61 421.72 626.96C452.83 615.7 476.72 588.53 482.73 554.37L485.78 537.07H557.32L566.51 485.93C567.32 481.45 563.88 477.33 559.32 477.33H496.51L502.59 442.28H602.03L611.62 387.87C612.26 384.2 610.06 380.8 606.75 379.71V379.7Z" fill="url(#paint9_linear_1_10)"/>
<path d="M496.5 477.33C496.5 478.19 496.69 479 497.04 479.72L497.46 477.33H496.5Z" fill="#FCE37C"/>
<path d="M566.5 485.92L566.18 487.68C565.17 484.91 562.51 482.86 559.31 482.86H502.04C499.84 482.86 497.94 481.57 497.04 479.71C496.69 478.99 496.5 478.18 496.5 477.32H559.31C563.86 477.32 567.3 481.44 566.5 485.92Z" fill="#FCE37C"/>
<path d="M611.62 387.87L611.29 389.7C610.56 387.62 608.88 385.95 606.75 385.25C606.03 385 605.26 384.87 604.44 384.87H485.16C455.72 384.87 430.53 406 425.42 434.99L390.53 632.58C390.2 632.58 389.88 632.58 389.55 632.58L389.8 631.13L425.41 429.44C430.52 400.45 455.72 379.32 485.15 379.32H604.43C605.24 379.32 606.01 379.45 606.74 379.7C610.05 380.8 612.25 384.2 611.61 387.86L611.62 387.87Z" fill="#FCE37C"/>
<g filter="url(#filter1_d_1_10)">
<path d="M278.26 377.89L265.17 351.71C261.77 344.91 256.25 339.39 249.45 335.99L223.27 322.9L249.45 309.81C256.25 306.41 261.77 300.89 265.17 294.09L278.26 267.91L291.35 294.09C294.75 300.89 300.27 306.41 307.07 309.81L333.25 322.9L307.07 335.99C300.27 339.39 294.75 344.91 291.35 351.71L278.26 377.89Z" fill="white"/>
</g>
<g filter="url(#filter2_d_1_10)">
<path d="M227.67 400.9L221.32 388.2C219.67 384.9 216.99 382.22 213.69 380.57L200.99 374.22L213.69 367.87C216.99 366.22 219.67 363.54 221.32 360.24L227.67 347.54L234.02 360.24C235.67 363.54 238.35 366.22 241.65 367.87L254.35 374.22L241.65 380.57C238.35 382.22 235.67 384.9 234.02 388.2L227.67 400.9Z" fill="white"/>
</g>
<g filter="url(#filter3_f_1_10)">
<circle cx="497" cy="523" r="359" fill="#FAFF00" fill-opacity="0.17" style="mix-blend-mode:screen"/>
</g>
<defs>
<filter id="filter0_d_1_10" x="60.5" y="60.33" width="887.48" height="909.7" filterUnits="userSpaceOnUse" color-interpolation-filters="sRGB">
<feFlood flood-opacity="0" result="BackgroundImageFix"/>
<feColorMatrix in="SourceAlpha" type="matrix" values="0 0 0 0 0 0 0 0 0 0 0 0 0 0 0 0 0 0 127 0" result="hardAlpha"/>
<feOffset/>
<feGaussianBlur stdDeviation="60"/>
<feColorMatrix type="matrix" values="0 0 0 0 0.937255 0 0 0 0 0.768627 0 0 0 0 0.0666667 0 0 0 0.5 0"/>
<feBlend mode="normal" in2="BackgroundImageFix" result="effect1_dropShadow_1_10"/>
<feBlend mode="normal" in="SourceGraphic" in2="effect1_dropShadow_1_10" result="shape"/>
</filter>
<filter id="filter1_d_1_10" x="163.27" y="207.91" width="229.98" height="229.98" filterUnits="userSpaceOnUse" color-interpolation-filters="sRGB">
<feFlood flood-opacity="0" result="BackgroundImageFix"/>
<feColorMatrix in="SourceAlpha" type="matrix" values="0 0 0 0 0 0 0 0 0 0 0 0 0 0 0 0 0 0 127 0" result="hardAlpha"/>
<feOffset/>
<feGaussianBlur stdDeviation="30"/>
<feColorMatrix type="matrix" values="0 0 0 0 1 0 0 0 0 1 0 0 0 0 1 0 0 0 0.5 0"/>
<feBlend mode="normal" in2="BackgroundImageFix" result="effect1_dropShadow_1_10"/>
<feBlend mode="normal" in="SourceGraphic" in2="effect1_dropShadow_1_10" result="shape"/>
</filter>
<filter id="filter2_d_1_10" x="140.99" y="287.54" width="173.36" height="173.36" filterUnits="userSpaceOnUse" color-interpolation-filters="sRGB">
<feFlood flood-opacity="0" result="BackgroundImageFix"/>
<feColorMatrix in="SourceAlpha" type="matrix" values="0 0 0 0 0 0 0 0 0 0 0 0 0 0 0 0 0 0 127 0" result="hardAlpha"/>
<feOffset/>
<feGaussianBlur stdDeviation="30"/>
<feColorMatrix type="matrix" values="0 0 0 0 1 0 0 0 0 1 0 0 0 0 1 0 0 0 0.5 0"/>
<feBlend mode="normal" in2="BackgroundImageFix" result="effect1_dropShadow_1_10"/>
<feBlend mode="normal" in="SourceGraphic" in2="effect1_dropShadow_1_10" result="shape"/>
</filter>
<filter id="filter3_f_1_10" x="5.8" y="31.8" width="982.4" height="982.4" filterUnits="userSpaceOnUse" color-interpolation-filters="sRGB">
<feFlood flood-opacity="0" result="BackgroundImageFix"/>
<feBlend mode="normal" in="SourceGraphic" in2="BackgroundImageFix" result="shape"/>
<feGaussianBlur stdDeviation="66.1" result="effect1_foregroundBlur_1_10"/>
</filter>
<linearGradient id="paint0_linear_1_10" x1="280.37" y1="291.32" x2="728.1" y2="739.06" gradientUnits="userSpaceOnUse">
<stop stop-color="#FF9500"/>
<stop offset="1" stop-color="#FF7A27"/>
</linearGradient>
<linearGradient id="paint1_linear_1_10" x1="225.53" y1="225.07" x2="856.9" y2="856.44" gradientUnits="userSpaceOnUse">
<stop stop-color="#FFD629"/>
<stop offset="1" stop-color="#FFA300"/>
</linearGradient>
<linearGradient id="paint2_linear_1_10" x1="264.64" y1="338.32" x2="807.5" y2="881.18" gradientUnits="userSpaceOnUse">
<stop stop-color="#FFD629"/>
<stop offset="1" stop-color="#FFA300"/>
</linearGradient>
<linearGradient id="paint3_linear_1_10" x1="310.22" y1="392.6" x2="698.25" y2="780.63" gradientUnits="userSpaceOnUse">
<stop stop-color="#FF9600"/>
<stop offset="1" stop-color="#FF6400"/>
</linearGradient>
<linearGradient id="paint4_linear_1_10" x1="643.79" y1="602.42" x2="364.68" y2="323.3" gradientUnits="userSpaceOnUse">
<stop stop-color="#FF9600"/>
<stop offset="1" stop-color="#FF6400"/>
</linearGradient>
<linearGradient id="paint5_linear_1_10" x1="685.94" y1="697.71" x2="330.93" y2="342.7" gradientUnits="userSpaceOnUse">
<stop stop-color="#FFA300"/>
<stop offset="1" stop-color="#FF8827"/>
</linearGradient>
<linearGradient id="paint6_linear_1_10" x1="408.5" y1="542.42" x2="458.54" y2="648.38" gradientUnits="userSpaceOnUse">
<stop stop-color="#FF9600"/>
<stop offset="1" stop-color="#FF6400"/>
</linearGradient>
<linearGradient id="paint7_linear_1_10" x1="492.58" y1="625.99" x2="487.7" y2="535.83" gradientUnits="userSpaceOnUse">
<stop stop-color="#FF9600"/>
<stop offset="1" stop-color="#FF6400"/>
</linearGradient>
<linearGradient id="paint8_linear_1_10" x1="578.49" y1="603.89" x2="517.12" y2="423.58" gradientUnits="userSpaceOnUse">
<stop stop-color="#FF9600"/>
<stop offset="1" stop-color="#FF6400"/>
</linearGradient>
<linearGradient id="paint9_linear_1_10" x1="295.74" y1="323.07" x2="728.63" y2="713.71" gradientUnits="userSpaceOnUse">
<stop stop-color="#FFD629"/>
<stop offset="1" stop-color="#FFA300"/>
</linearGradient>
</defs>
</svg>
