<svg width="631" height="397" viewBox="0 0 631 397" fill="none" xmlns="http://www.w3.org/2000/svg">
<mask id="mask0_2_108" style="mask-type:alpha" maskUnits="userSpaceOnUse" x="109" y="141" width="382" height="115">
<rect x="112" y="144" width="376" height="109" rx="54.5" fill="#6139F1" stroke="#40288B" stroke-width="6"/>
</mask>
<g mask="url(#mask0_2_108)">
<g filter="url(#filter0_f_2_108)">
<ellipse cx="300" cy="295" rx="161" ry="94" fill="#9771F9"/>
</g>
</g>
<g filter="url(#filter1_d_2_108)">
<path d="M226 216.927V229.007C226 229.553 225.55 230 225 230H182C181.45 230 181 229.553 181 229.007V216.927C181 210.463 183.802 204.615 188.258 200.525C192.345 204.3 197.738 206.446 203.5 206.446C209.262 206.446 214.655 204.3 218.742 200.525C218.963 200.728 219.179 200.935 219.391 201.145C223.469 205.195 226 210.782 226 216.927Z" fill="white"/>
<path d="M219.784 184.173C219.784 187.204 218.935 190.158 217.33 192.714C214.332 197.493 209.161 200.346 203.5 200.346C197.839 200.346 192.668 197.493 189.67 192.714C188.064 190.158 187.216 187.204 187.216 184.173C187.216 175.255 194.521 168 203.5 168C212.479 168 219.784 175.255 219.784 184.173Z" fill="white"/>
</g>
<path d="M283.893 186.98V190.328H273.273V197.708H281.553V201.056H273.273V212H269.169V186.98H283.893ZM291.8 195.044C292.4 194.036 293.192 193.256 294.176 192.704C295.184 192.128 296.372 191.84 297.74 191.84V196.088H296.696C295.088 196.088 293.864 196.496 293.024 197.312C292.208 198.128 291.8 199.544 291.8 201.56V212H287.696V192.164H291.8V195.044ZM303.601 189.536C302.857 189.536 302.233 189.284 301.729 188.78C301.225 188.276 300.973 187.652 300.973 186.908C300.973 186.164 301.225 185.54 301.729 185.036C302.233 184.532 302.857 184.28 303.601 184.28C304.321 184.28 304.933 184.532 305.437 185.036C305.941 185.54 306.193 186.164 306.193 186.908C306.193 187.652 305.941 188.276 305.437 188.78C304.933 189.284 304.321 189.536 303.601 189.536ZM305.617 192.164V212H301.513V192.164H305.617ZM329.185 201.596C329.185 202.34 329.137 203.012 329.041 203.612H313.885C314.005 205.196 314.593 206.468 315.649 207.428C316.705 208.388 318.001 208.868 319.537 208.868C321.745 208.868 323.305 207.944 324.217 206.096H328.645C328.045 207.92 326.953 209.42 325.369 210.596C323.809 211.748 321.865 212.324 319.537 212.324C317.641 212.324 315.937 211.904 314.425 211.064C312.937 210.2 311.761 209 310.897 207.464C310.057 205.904 309.637 204.104 309.637 202.064C309.637 200.024 310.045 198.236 310.861 196.7C311.701 195.14 312.865 193.94 314.353 193.1C315.865 192.26 317.593 191.84 319.537 191.84C321.409 191.84 323.077 192.248 324.541 193.064C326.005 193.88 327.145 195.032 327.961 196.52C328.777 197.984 329.185 199.676 329.185 201.596ZM324.901 200.3C324.877 198.788 324.337 197.576 323.281 196.664C322.225 195.752 320.917 195.296 319.357 195.296C317.941 195.296 316.729 195.752 315.721 196.664C314.713 197.552 314.113 198.764 313.921 200.3H324.901ZM343.231 191.84C344.791 191.84 346.183 192.164 347.407 192.812C348.655 193.46 349.627 194.42 350.323 195.692C351.019 196.964 351.367 198.5 351.367 200.3V212H347.299V200.912C347.299 199.136 346.855 197.78 345.967 196.844C345.079 195.884 343.867 195.404 342.331 195.404C340.795 195.404 339.571 195.884 338.659 196.844C337.771 197.78 337.327 199.136 337.327 200.912V212H333.223V192.164H337.327V194.432C337.999 193.616 338.851 192.98 339.883 192.524C340.939 192.068 342.055 191.84 343.231 191.84ZM355.234 201.992C355.234 200 355.642 198.236 356.458 196.7C357.298 195.164 358.426 193.976 359.842 193.136C361.282 192.272 362.878 191.84 364.63 191.84C365.926 191.84 367.198 192.128 368.446 192.704C369.718 193.256 370.726 194 371.47 194.936V185.36H375.61V212H371.47V209.012C370.798 209.972 369.862 210.764 368.662 211.388C367.486 212.012 366.13 212.324 364.594 212.324C362.866 212.324 361.282 211.892 359.842 211.028C358.426 210.14 357.298 208.916 356.458 207.356C355.642 205.772 355.234 203.984 355.234 201.992ZM371.47 202.064C371.47 200.696 371.182 199.508 370.606 198.5C370.054 197.492 369.322 196.724 368.41 196.196C367.498 195.668 366.514 195.404 365.458 195.404C364.402 195.404 363.418 195.668 362.506 196.196C361.594 196.7 360.85 197.456 360.274 198.464C359.722 199.448 359.446 200.624 359.446 201.992C359.446 203.36 359.722 204.56 360.274 205.592C360.85 206.624 361.594 207.416 362.506 207.968C363.442 208.496 364.426 208.76 365.458 208.76C366.514 208.76 367.498 208.496 368.41 207.968C369.322 207.44 370.054 206.672 370.606 205.664C371.182 204.632 371.47 203.432 371.47 202.064ZM388.201 212.324C386.641 212.324 385.237 212.048 383.989 211.496C382.765 210.92 381.793 210.152 381.073 209.192C380.353 208.208 379.969 207.116 379.921 205.916H384.169C384.241 206.756 384.637 207.464 385.357 208.04C386.101 208.592 387.025 208.868 388.129 208.868C389.281 208.868 390.169 208.652 390.793 208.22C391.441 207.764 391.765 207.188 391.765 206.492C391.765 205.748 391.405 205.196 390.685 204.836C389.989 204.476 388.873 204.08 387.337 203.648C385.849 203.24 384.637 202.844 383.701 202.46C382.765 202.076 381.949 201.488 381.253 200.696C380.581 199.904 380.245 198.86 380.245 197.564C380.245 196.508 380.557 195.548 381.181 194.684C381.805 193.796 382.693 193.1 383.845 192.596C385.021 192.092 386.365 191.84 387.877 191.84C390.133 191.84 391.945 192.416 393.313 193.568C394.705 194.696 395.449 196.244 395.545 198.212H391.441C391.369 197.324 391.009 196.616 390.361 196.088C389.713 195.56 388.837 195.296 387.733 195.296C386.653 195.296 385.825 195.5 385.249 195.908C384.673 196.316 384.385 196.856 384.385 197.528C384.385 198.056 384.577 198.5 384.961 198.86C385.345 199.22 385.813 199.508 386.365 199.724C386.917 199.916 387.733 200.168 388.813 200.48C390.253 200.864 391.429 201.26 392.341 201.668C393.277 202.052 394.081 202.628 394.753 203.396C395.425 204.164 395.773 205.184 395.797 206.456C395.797 207.584 395.485 208.592 394.861 209.48C394.237 210.368 393.349 211.064 392.197 211.568C391.069 212.072 389.737 212.324 388.201 212.324Z" fill="white"/>
<path d="M198 216.578V227.584C198 228.082 197.59 228.489 197.089 228.489H157.911C157.41 228.489 157 228.082 157 227.584V216.578C157 210.689 159.553 205.36 163.613 201.634C167.337 205.074 172.25 207.029 177.5 207.029C182.75 207.029 187.663 205.074 191.387 201.634C191.589 201.819 191.786 202.008 191.978 202.199C195.694 205.888 198 210.979 198 216.578Z" fill="white" fill-opacity="0.22"/>
<path d="M192.336 186.735C192.336 189.497 191.563 192.188 190.101 194.517C187.369 198.872 182.658 201.471 177.5 201.471C172.342 201.471 167.631 198.872 164.899 194.517C163.436 192.188 162.664 189.497 162.664 186.735C162.664 178.61 169.319 172 177.5 172C185.681 172 192.336 178.61 192.336 186.735Z" fill="white" fill-opacity="0.22"/>
<g filter="url(#filter2_f_2_108)">
<rect x="99" y="130" width="402" height="137" rx="68.5" fill="white" fill-opacity="0.12"/>
</g>
<defs>
<filter id="filter0_f_2_108" x="18.7" y="80.7" width="562.6" height="428.6" filterUnits="userSpaceOnUse" color-interpolation-filters="sRGB">
<feFlood flood-opacity="0" result="BackgroundImageFix"/>
<feBlend mode="normal" in="SourceGraphic" in2="BackgroundImageFix" result="shape"/>
<feGaussianBlur stdDeviation="60.15" result="effect1_foregroundBlur_2_108"/>
</filter>
<filter id="filter1_d_2_108" x="169.7" y="156.7" width="67.6" height="84.6" filterUnits="userSpaceOnUse" color-interpolation-filters="sRGB">
<feFlood flood-opacity="0" result="BackgroundImageFix"/>
<feColorMatrix in="SourceAlpha" type="matrix" values="0 0 0 0 0 0 0 0 0 0 0 0 0 0 0 0 0 0 127 0" result="hardAlpha"/>
<feOffset/>
<feGaussianBlur stdDeviation="5.65"/>
<feComposite in2="hardAlpha" operator="out"/>
<feColorMatrix type="matrix" values="0 0 0 0 1 0 0 0 0 1 0 0 0 0 1 0 0 0 0.35 0"/>
<feBlend mode="normal" in2="BackgroundImageFix" result="effect1_dropShadow_2_108"/>
<feBlend mode="normal" in="SourceGraphic" in2="effect1_dropShadow_2_108" result="shape"/>
</filter>
<filter id="filter2_f_2_108" x="-30.3" y="0.699997" width="660.6" height="395.6" filterUnits="userSpaceOnUse" color-interpolation-filters="sRGB">
<feFlood flood-opacity="0" result="BackgroundImageFix"/>
<feBlend mode="normal" in="SourceGraphic" in2="BackgroundImageFix" result="shape"/>
<feGaussianBlur stdDeviation="64.65" result="effect1_foregroundBlur_2_108"/>
</filter>
</defs>
</svg>
