<?xml version="1.0" encoding="UTF-8"?>
<svg id="Layer_1" data-name="Layer 1" xmlns="http://www.w3.org/2000/svg" xmlns:xlink="http://www.w3.org/1999/xlink" viewBox="0 0 718 718">
  <defs>
    <style>
      .cls-1 {
        fill: url(#linear-gradient);
      }

      .cls-1, .cls-2, .cls-3, .cls-4, .cls-5, .cls-6, .cls-7, .cls-8, .cls-9, .cls-10, .cls-11, .cls-12, .cls-13 {
        stroke-width: 0px;
      }

      .cls-2 {
        fill: url(#linear-gradient-6);
      }

      .cls-3 {
        fill: url(#linear-gradient-5);
      }

      .cls-4 {
        fill: #fff;
      }

      .cls-5 {
        fill: url(#linear-gradient-2);
      }

      .cls-6 {
        fill: rgba(250, 255, 0, .17);
      }

      .cls-7 {
        fill: url(#linear-gradient-7);
      }

      .cls-8 {
        fill: url(#linear-gradient-3);
      }

      .cls-9 {
        fill: url(#linear-gradient-9);
      }

      .cls-10 {
        fill: url(#linear-gradient-8);
      }

      .cls-14 {
        fill: none;
        stroke: #ffa300;
        stroke-miterlimit: 10;
        stroke-width: 30px;
      }

      .cls-11 {
        fill: url(#linear-gradient-10);
      }

      .cls-12 {
        fill: #fce37c;
      }

      .cls-13 {
        fill: url(#linear-gradient-4);
      }
    </style>
    <linearGradient id="linear-gradient" x1="129.37" y1="581.76" x2="577.1" y2="134.03" gradientTransform="translate(0 716.08) scale(1 -1)" gradientUnits="userSpaceOnUse">
      <stop offset="0" stop-color="#ff9500"/>
      <stop offset="1" stop-color="#ff7a27"/>
    </linearGradient>
    <linearGradient id="linear-gradient-2" x1="74.52" y1="648" x2="705.89" y2="16.63" gradientTransform="translate(0 716.08) scale(1 -1)" gradientUnits="userSpaceOnUse">
      <stop offset="0" stop-color="#ffd629"/>
      <stop offset="1" stop-color="#ffa300"/>
    </linearGradient>
    <linearGradient id="linear-gradient-3" x1="113.63" y1="534.75" x2="656.49" y2="-8.11" gradientTransform="translate(0 716.08) scale(1 -1)" gradientUnits="userSpaceOnUse">
      <stop offset="0" stop-color="#ffd629"/>
      <stop offset="1" stop-color="#ffa300"/>
    </linearGradient>
    <linearGradient id="linear-gradient-4" x1="159.21" y1="480.49" x2="547.25" y2="92.45" gradientTransform="translate(0 716.08) scale(1 -1)" gradientUnits="userSpaceOnUse">
      <stop offset="0" stop-color="#ff9600"/>
      <stop offset="1" stop-color="#ff6400"/>
    </linearGradient>
    <linearGradient id="linear-gradient-5" x1="492.78" y1="270.66" x2="213.67" y2="549.78" gradientTransform="translate(0 716.08) scale(1 -1)" gradientUnits="userSpaceOnUse">
      <stop offset="0" stop-color="#ff9600"/>
      <stop offset="1" stop-color="#ff6400"/>
    </linearGradient>
    <linearGradient id="linear-gradient-6" x1="534.95" y1="175.37" x2="179.94" y2="530.38" gradientTransform="translate(0 716.08) scale(1 -1)" gradientUnits="userSpaceOnUse">
      <stop offset="0" stop-color="#ffa300"/>
      <stop offset="1" stop-color="#ff8827"/>
    </linearGradient>
    <linearGradient id="linear-gradient-7" x1="652.49" y1="36.48" x2="79.59" y2="609.37" gradientTransform="matrix(1,0,0,1,0,0)" xlink:href="#linear-gradient-4"/>
    <linearGradient id="linear-gradient-8" x1="714.54" y1="190.05" x2="224.5" y2="680.09" gradientTransform="matrix(1,0,0,1,0,0)" xlink:href="#linear-gradient-4"/>
    <linearGradient id="linear-gradient-9" x1="446.22" y1="237.1" x2="187.79" y2="495.52" gradientTransform="matrix(1,0,0,1,0,0)" xlink:href="#linear-gradient-2"/>
    <linearGradient id="linear-gradient-10" x1="555.44" y1="346.32" x2="297.02" y2="604.75" gradientTransform="matrix(1,0,0,1,0,0)" xlink:href="#linear-gradient-2"/>
  </defs>
  <g>
    <path class="cls-1" d="m661.97,347.07c0-105.83-53.25-199.23-134.42-254.85-11-7.54-22.51-14.39-34.48-20.47-7.52-3.84-15.23-7.37-23.09-10.58-35.4-14.48-74.09-22.56-114.63-22.82-.7-.02-1.4-.02-2.11-.02-170.51,0-308.74,138.23-308.74,308.74,0,3.72.06,7.43.2,11.11-.14,3.69-.2,7.39-.2,11.11,0,170.51,138.23,308.74,308.74,308.74s308.74-138.23,308.74-308.74c0-3.72-.06-7.43-.2-11.11.14-3.69.2-7.39.2-11.11h-.01Zm-616.94,18.01c.03.58.07,1.15.1,1.73-.04-.58-.07-1.15-.1-1.73Zm2.2,23.12c.03.25.06.5.1.75-.03-.25-.06-.5-.1-.75Zm3.83,22.43c.09.45.19.9.29,1.35-.1-.45-.19-.9-.29-1.35Zm1.56,7.01c.09.39.18.78.27,1.18-.09-.39-.18-.78-.27-1.18Zm3.73,14.37c.13.46.26.91.39,1.37-.13-.45-.26-.91-.39-1.37Zm2.29,7.66c.12.4.25.79.38,1.18-.13-.39-.26-.79-.38-1.18Zm2.1,6.43c.18.53.35,1.05.53,1.58-.18-.52-.36-1.05-.53-1.58Zm2.69,7.63c.14.39.3.78.44,1.17-.15-.39-.3-.78-.44-1.17Zm2.35,6.16c.24.6.47,1.2.71,1.8-.24-.6-.48-1.2-.71-1.8Zm8.81,20.25c.34.71.69,1.43,1.03,2.14-.35-.71-.69-1.42-1.03-2.14Zm3.13,6.34c.4.79.81,1.58,1.21,2.36-.41-.79-.81-1.57-1.21-2.36Zm3.11,5.97c.59,1.09,1.18,2.19,1.78,3.27-.6-1.09-1.19-2.18-1.78-3.27Zm15.16,25.34c1.12,1.69,2.27,3.37,3.43,5.04-1.16-1.67-2.3-3.34-3.43-5.04Zm8.45,12.07c1.16,1.58,2.34,3.14,3.54,4.7-1.19-1.56-2.37-3.12-3.54-4.7Zm4.43,5.87c1.18,1.53,2.39,3.05,3.6,4.55-1.21-1.51-2.42-3.02-3.6-4.55Zm9.25,11.39c1.24,1.45,2.49,2.89,3.76,4.32-1.26-1.43-2.52-2.86-3.76-4.32Zm14.81,16.2c1.35,1.37,2.72,2.73,4.09,4.08-1.37-1.35-2.74-2.7-4.09-4.08Zm38.69,33.41c.83.6,1.67,1.19,2.5,1.79-2.82-2.01-5.62-4.06-8.37-6.17,1.94,1.48,3.89,2.94,5.87,4.38Zm-6.19-4.64c-1.82-1.4-3.63-2.82-5.43-4.26,1.79,1.44,3.6,2.86,5.43,4.26Zm-6.07-4.79c-1.68-1.36-3.35-2.72-4.99-4.11,1.65,1.39,3.32,2.76,4.99,4.11Zm-5.84-4.84c-1.57-1.34-3.14-2.68-4.69-4.05,1.55,1.37,3.11,2.71,4.69,4.05Zm-5.65-4.92c-1.5-1.33-2.98-2.67-4.45-4.04,1.47,1.36,2.96,2.7,4.45,4.04Zm-5.5-5.02c-1.43-1.34-2.85-2.68-4.25-4.04,1.4,1.36,2.83,2.71,4.25,4.04Zm34.86,28.19c.83.58,1.68,1.15,2.51,1.72-.84-.57-1.68-1.14-2.51-1.72Zm5.7,3.87c.86.57,1.72,1.13,2.59,1.69-.86-.56-1.73-1.12-2.59-1.69Zm5.72,3.7c.94.59,1.88,1.18,2.83,1.77-.95-.58-1.89-1.17-2.83-1.77Zm13.37,7.99c.5.28,1,.55,1.49.83-.5-.28-1-.55-1.49-.83Zm6.1,3.34c.42.23.85.46,1.27.68-.43-.22-.85-.45-1.27-.68Zm7.07,3.66c.33.17.66.33,1,.49-.33-.16-.67-.33-1-.49Zm5.93,2.88c.54.26,1.08.51,1.62.77-.54-.25-1.08-.51-1.62-.77Zm7.18,3.3c.46.21.93.41,1.4.61-.47-.2-.93-.4-1.4-.61Zm13.42,5.57c.29.11.58.23.88.34-.29-.11-.58-.23-.88-.34Zm6.94,2.6c.31.11.62.23.94.34-.31-.11-.62-.23-.94-.34Zm7.06,2.44c.32.11.63.21.95.32-.32-.1-.64-.21-.95-.32Zm7.16,2.29c.3.09.61.19.91.28-.3-.09-.61-.18-.91-.28Zm7.26,2.12c.27.07.54.15.8.22-.27-.07-.54-.15-.8-.22Zm7.35,1.95c.2.05.4.1.61.15-.2-.05-.41-.1-.61-.15Zm22.06,4.72c.1.02.2.04.29.05-.1-.02-.2-.04-.29-.05Zm22.32,3.07c.33.03.65.07.98.1-.33-.03-.65-.06-.98-.1Zm23.41,1.47c.19,0,.38,0,.57.01-.19,0-.38,0-.57-.01Z"/>
    <path class="cls-14" d="m45.6,373.23c0,.15.02.3.03.45m.67,6.82c.06.53.12,1.07.18,1.6m1.84,13.59c.08.49.16.98.24,1.47m1.01,5.86c.06.33.12.66.18.99m4.76,21.29c.11.42.22.83.33,1.25m14.02,40.91c.18.42.36.83.54,1.25m2.04,4.64c.31.69.62,1.38.94,2.07m12.2,23.83c.52.91,1.04,1.82,1.57,2.73m1.56,2.65c.93,1.57,1.88,3.13,2.84,4.68m1.42,2.28c1.11,1.76,2.24,3.5,3.38,5.23m4.8,7.06c1.14,1.63,2.31,3.25,3.48,4.86m9.8,12.74c1.21,1.49,2.44,2.96,3.68,4.43m5.82,6.73c1.27,1.42,2.56,2.83,3.86,4.23m1.08,1.17c1.31,1.4,2.64,2.78,3.97,4.15m103.1,70.11c.37.15.74.31,1.11.46m48.86,15.44c.09.02.19.04.28.06m21.62,4.06c.22.03.45.07.67.1m6.79.93c.29.04.59.07.88.11m14.43,1.43c.33.02.65.05.98.07m6.83.42c.28.01.57.03.85.04m323.73-308.35c0-105.83-53.25-199.23-134.42-254.85-11-7.54-22.51-14.39-34.48-20.47-7.52-3.84-15.23-7.37-23.09-10.58-35.4-14.48-74.09-22.56-114.63-22.82-.7-.02-1.4-.02-2.11-.02-170.51,0-308.74,138.23-308.74,308.74,0,3.72.06,7.43.2,11.11-.14,3.69-.2,7.39-.2,11.11,0,170.51,138.23,308.74,308.74,308.74s308.74-138.23,308.74-308.74c0-3.72-.06-7.43-.2-11.11.14-3.69.2-7.39.2-11.11h-.01Zm-616.94,18.01c.03.58.07,1.15.1,1.73-.04-.58-.07-1.15-.1-1.73Zm2.2,23.12c.03.25.06.5.1.75-.03-.25-.06-.5-.1-.75Zm3.83,22.43c.09.45.19.9.29,1.35-.1-.45-.19-.9-.29-1.35Zm1.56,7.01c.09.39.18.78.27,1.18-.09-.39-.18-.78-.27-1.18Zm3.73,14.37c.13.46.26.91.39,1.37-.13-.45-.26-.91-.39-1.37Zm2.29,7.66c.12.4.25.79.38,1.18-.13-.39-.26-.79-.38-1.18Zm2.1,6.43c.18.53.35,1.05.53,1.58-.18-.52-.36-1.05-.53-1.58Zm2.69,7.63c.14.39.3.78.44,1.17-.15-.39-.3-.78-.44-1.17Zm2.35,6.16c.24.6.47,1.2.71,1.8-.24-.6-.48-1.2-.71-1.8Zm8.81,20.25c.34.71.69,1.43,1.03,2.14-.35-.71-.69-1.42-1.03-2.14Zm3.13,6.34c.4.79.81,1.58,1.21,2.36-.41-.79-.81-1.57-1.21-2.36Zm3.11,5.97c.59,1.09,1.18,2.19,1.78,3.27-.6-1.09-1.19-2.18-1.78-3.27Zm15.16,25.34c1.12,1.69,2.27,3.37,3.43,5.04-1.16-1.67-2.3-3.34-3.43-5.04Zm8.45,12.07c1.16,1.58,2.34,3.14,3.54,4.7-1.19-1.56-2.37-3.12-3.54-4.7Zm4.43,5.87c1.18,1.53,2.39,3.05,3.6,4.55-1.21-1.51-2.42-3.02-3.6-4.55Zm9.25,11.39c1.24,1.45,2.49,2.89,3.76,4.32-1.26-1.43-2.52-2.86-3.76-4.32Zm14.81,16.2c1.35,1.37,2.72,2.73,4.09,4.08-1.37-1.35-2.74-2.7-4.09-4.08Zm38.69,33.41c.83.6,1.67,1.19,2.5,1.79-2.82-2.01-5.62-4.06-8.37-6.17,1.94,1.48,3.89,2.94,5.87,4.38Zm-6.19-4.64c-1.82-1.4-3.63-2.82-5.43-4.26,1.79,1.44,3.6,2.86,5.43,4.26Zm-6.07-4.79c-1.68-1.36-3.35-2.72-4.99-4.11,1.65,1.39,3.32,2.76,4.99,4.11Zm-5.84-4.84c-1.57-1.34-3.14-2.68-4.69-4.05,1.55,1.37,3.11,2.71,4.69,4.05Zm-5.65-4.92c-1.5-1.33-2.98-2.67-4.45-4.04,1.47,1.36,2.96,2.7,4.45,4.04Zm-5.5-5.02c-1.43-1.34-2.85-2.68-4.25-4.04,1.4,1.36,2.83,2.71,4.25,4.04Zm34.86,28.19c.83.58,1.68,1.15,2.51,1.72-.84-.57-1.68-1.14-2.51-1.72Zm5.7,3.87c.86.57,1.72,1.13,2.59,1.69-.86-.56-1.73-1.12-2.59-1.69Zm5.72,3.7c.94.59,1.88,1.18,2.83,1.77-.95-.58-1.89-1.17-2.83-1.77Zm13.37,7.99c.5.28,1,.55,1.49.83-.5-.28-1-.55-1.49-.83Zm6.1,3.34c.42.23.85.46,1.27.68-.43-.22-.85-.45-1.27-.68Zm7.07,3.66c.33.17.66.33,1,.49-.33-.16-.67-.33-1-.49Zm5.93,2.88c.54.26,1.08.51,1.62.77-.54-.25-1.08-.51-1.62-.77Zm7.18,3.3c.46.21.93.41,1.4.61-.47-.2-.93-.4-1.4-.61Zm13.42,5.57c.29.11.58.23.88.34-.29-.11-.58-.23-.88-.34Zm6.94,2.6c.31.11.62.23.94.34-.31-.11-.62-.23-.94-.34Zm7.06,2.44c.32.11.63.21.95.32-.32-.1-.64-.21-.95-.32Zm7.16,2.29c.3.09.61.19.91.28-.3-.09-.61-.18-.91-.28Zm7.26,2.12c.27.07.54.15.8.22-.27-.07-.54-.15-.8-.22Zm7.35,1.95c.2.05.4.1.61.15-.2-.05-.41-.1-.61-.15Zm22.06,4.72c.1.02.2.04.29.05-.1-.02-.2-.04-.29-.05Zm22.32,3.07c.33.03.65.07.98.1-.33-.03-.65-.06-.98-.1Zm23.41,1.47c.19,0,.38,0,.57.01-.19,0-.38,0-.57-.01Z"/>
  </g>
  <path class="cls-5" d="m670.05,346.78c0,3.82-.06,7.62-.21,11.41-6,169.69-145.46,305.41-316.61,305.41-45.65,0-89.04-9.65-128.25-27.04-12.61-5.58-24.78-11.97-36.45-19.09-7.43-4.53-14.66-9.36-21.68-14.47-32.53-23.71-60.38-53.46-81.87-87.6-28.88-45.82-46.32-99.55-48.36-157.2-.14-3.78-.21-7.59-.21-11.41C36.41,171.82,178.25,29.97,353.23,29.97c.72,0,1.45,0,2.16.02,41.6.27,81.3,8.56,117.63,23.42,8.07,3.29,15.98,6.92,23.7,10.85,12.28,6.25,24.1,13.27,35.38,21.01,83.3,57.07,137.94,152.91,137.94,261.52h.01Z"/>
  <path class="cls-12" d="m670.05,346.78c0,1.86-.02,3.73-.05,5.59-1.91-106.21-56.09-199.65-137.89-255.7-11.29-7.74-23.1-14.76-35.38-21.01-7.72-3.94-15.62-7.56-23.7-10.85-36.33-14.85-76.03-23.15-117.63-23.42-.72-.02-1.44-.02-2.16-.02-173.07,0-313.73,138.78-316.76,311.13-.04-1.9-.05-3.81-.05-5.72C36.43,171.81,178.27,29.96,353.25,29.96c.72,0,1.45,0,2.16.02,41.6.27,81.3,8.56,117.63,23.42,8.07,3.29,15.98,6.92,23.7,10.85,12.28,6.25,24.1,13.27,35.38,21.01,83.3,57.07,137.94,152.91,137.94,261.52h-.01Z"/>
  <path class="cls-8" d="m670.05,358.19c0,3.82-.06,7.62-.21,11.41-6,169.69-145.46,305.41-316.61,305.41-45.65,0-89.04-9.65-128.25-27.04-12.61-5.58-24.78-11.97-36.45-19.09-7.43-4.53-14.66-9.36-21.68-14.47-32.53-23.71-60.38-53.46-81.87-87.6-28.88-45.82-46.32-99.55-48.36-157.2-.14-3.78-.21-7.59-.21-11.41,0-1.89.02-3.77.05-5.66.03,1.89.08,3.77.15,5.66,2.04,57.65,19.48,111.38,48.36,157.2,21.5,34.14,49.34,63.9,81.87,87.6,7.02,5.11,14.25,9.95,21.68,14.47,11.68,7.12,23.84,13.51,36.45,19.09,39.2,17.39,82.6,27.04,128.25,27.04,171.15,0,310.61-135.72,316.61-305.41.07-1.94.13-3.87.15-5.82.04,1.94.05,3.87.05,5.82h.02Z"/>
  <path class="cls-13" d="m670.05,369.59c0,174.97-141.84,316.82-316.82,316.82S36.41,544.57,36.41,369.59c0-3.82.06-7.62.21-11.41,6,169.69,145.46,305.41,316.61,305.41s310.61-135.72,316.61-305.41c.14,3.78.21,7.59.21,11.41Z"/>
  <path class="cls-3" d="m579.53,346.78c0,4.09-.11,8.16-.33,12.22-2.95-55.86-26.11-107.95-65.95-147.8-42.74-42.74-99.57-66.28-160.02-66.28s-117.28,23.54-160.02,66.28c-39.85,39.85-63,91.94-65.95,147.8-.22-4.06-.33-8.13-.33-12.22,0-60.45,23.54-117.28,66.28-160.02s99.57-66.28,160.02-66.28,117.28,23.54,160.02,66.28c42.74,42.74,66.28,99.57,66.28,160.02Z"/>
  <path class="cls-2" d="m579.21,359c-2.95,55.86-26.11,107.95-65.95,147.8-42.74,42.74-99.57,66.28-160.02,66.28s-117.28-23.54-160.02-66.28c-39.85-39.85-63-91.94-65.95-147.8,2.95-55.86,26.11-107.95,65.95-147.8,42.74-42.74,99.57-66.28,160.02-66.28s117.28,23.54,160.02,66.28c39.85,39.85,63,91.94,65.95,147.8Z"/>
  <g>
    <path class="cls-7" d="m432.44,299.96v58.36c0,4.09-1.4,7.56-4.21,10.42-2.81,2.85-6.21,4.28-10.2,4.28s-7.4-1.43-10.2-4.28c-2.81-2.85-4.21-6.33-4.21-10.42l-50.56-144.88-8.09,13.74v131.13c0,4.09-1.4,7.56-4.21,10.42-2.81,2.85-6.21,4.28-10.2,4.28s-7.56-1.43-10.42-4.28-4.28-6.33-4.28-10.42v-72.77h-72.77c-13.22,0-25.42,3.26-36.6,9.77-11.18,6.52-20.05,15.36-26.61,26.54-6.56,11.18-9.85,23.33-9.85,36.46s3.28,25.42,9.85,36.6c6.56,11.18,15.43,20.05,26.61,26.61,11.18,6.56,23.38,9.85,36.6,9.85s25.4-3.28,36.53-9.85c2.53-1.49,4.92-3.11,7.21-4.84,6.31,4.68,13.14,8.29,20.48,10.83,7.07,2.45,14.44,3.71,22.11,3.83v.02h1.15c13.22,0,25.42-3.28,36.6-9.85,2.41-1.42,4.7-2.97,6.9-4.6l.02.03c6.28,4.57,13.13,8.11,20.55,10.63,7.03,2.39,14.4,3.63,22.11,3.76v.03h1.29c13.22,0,25.42-3.28,36.6-9.85,11.18-6.56,20.05-15.43,26.61-26.61,6.56-11.18,9.85-23.38,9.85-36.6l-50.56-72.1-8.09,13.74Zm-174.94,58.36c0,4.09-1.4,7.56-4.21,10.42-2.81,2.85-6.21,4.28-10.2,4.28s-7.56-1.43-10.42-4.28-4.28-6.33-4.28-10.42,1.45-7.42,4.35-10.27c2.9-2.85,6.35-4.28,10.35-4.28h14.41v14.55Z"/>
    <polygon class="cls-10" points="403.19 504.01 447.14 504.01 455.23 490.27 411.28 446.75 403.19 460.49 403.19 504.01"/>
  </g>
  <path class="cls-12" d="m579.21,373.68c-2.95,55.86-26.11,107.95-65.95,147.8-42.74,42.74-99.57,66.28-160.02,66.28s-117.28-23.54-160.02-66.28c-39.85-39.85-63-91.94-65.95-147.8.13-2.45.3-4.9.51-7.33,4.51,53.07,27.35,102.36,65.45,140.46,42.74,42.74,99.57,66.28,160.02,66.28s117.28-23.54,160.02-66.28c38.1-38.1,60.94-87.39,65.45-140.46.21,2.43.38,4.88.51,7.33h-.02Z"/>
  <path class="cls-12" d="m193.21,506.8c5.79,5.79,11.85,11.24,18.14,16.31l-44.5,79.88c-32.53-23.71-60.38-53.46-81.87-87.6l53.68-96.36c10.98,32.7,29.45,62.67,54.56,87.77h-.01Z"/>
  <path class="cls-12" d="m473.03,53.4l-44.49,79.86c-23.87-8.4-49.25-12.77-75.3-12.77-17.56,0-34.82,1.99-51.51,5.86l53.68-96.36c41.6.27,81.3,8.56,117.63,23.42h0Z"/>
  <path class="cls-12" d="m232.61,538.35c11.65,7.38,23.92,13.63,36.66,18.72l-44.28,79.49c-12.61-5.58-24.78-11.97-36.45-19.09l44.07-79.12Z"/>
  <path class="cls-12" d="m532.11,85.26l-44.3,79.52c-11.1-8.25-22.87-15.41-35.16-21.43l44.07-79.1,35.38,21.01h.01Z"/>
  <path class="cls-4" d="m127.26,220.89l-13.09-26.18c-3.4-6.8-8.92-12.32-15.72-15.72l-26.18-13.09,26.18-13.09c6.8-3.4,12.32-8.92,15.72-15.72l13.09-26.18,13.09,26.18c3.4,6.8,8.92,12.32,15.72,15.72l26.18,13.09-26.18,13.09c-6.8,3.4-12.32,8.92-15.72,15.72l-13.09,26.18Z"/>
  <path class="cls-4" d="m76.67,243.9l-6.35-12.7c-1.65-3.3-4.33-5.98-7.63-7.63l-12.7-6.35,12.7-6.35c3.3-1.65,5.98-4.33,7.63-7.63l6.35-12.7,6.35,12.7c1.65,3.3,4.33,5.98,7.63,7.63l12.7,6.35-12.7,6.35c-3.3,1.65-5.98,4.33-7.63,7.63l-6.35,12.7Z"/>
  <g>
    <path class="cls-9" d="m440.53,286.22v58.36c0,4.09-1.4,7.57-4.21,10.42-2.8,2.85-6.2,4.28-10.2,4.28s-7.4-1.43-10.2-4.28c-2.81-2.85-4.21-6.33-4.21-10.42v-145.97l-58.65,14.84v131.13c0,4.09-1.4,7.57-4.21,10.42-2.8,2.85-6.2,4.28-10.2,4.28s-7.56-1.43-10.42-4.28c-2.85-2.85-4.28-6.33-4.28-10.42v-72.77h-72.77c-13.22,0-25.42,3.26-36.6,9.77-11.18,6.52-20.05,15.37-26.61,26.54-.37.62-.72,1.25-1.06,1.88-5.87,10.66-8.79,22.18-8.79,34.58,0,13.23,3.28,25.43,9.85,36.6,6.56,11.18,15.43,20.05,26.61,26.62,11.18,6.56,23.38,9.84,36.6,9.84s25.4-3.28,36.53-9.84c2.53-1.49,4.92-3.12,7.21-4.85,6.31,4.69,13.13,8.3,20.47,10.84,7.07,2.45,14.44,3.71,22.11,3.83v.02h1.15c13.22,0,25.42-3.28,36.6-9.84,2.42-1.42,4.7-2.97,6.9-4.6l.02.03c6.28,4.57,13.13,8.11,20.55,10.63,7.03,2.39,14.4,3.63,22.11,3.76v.02h1.29c13.22,0,25.42-3.28,36.6-9.84,11.18-6.57,20.05-15.44,26.61-26.62,6.57-11.17,9.85-23.37,9.85-36.6v-72.77l-58.65,14.41Zm-174.94,58.36c0,4.09-1.4,7.57-4.21,10.42-2.8,2.85-6.2,4.28-10.2,4.28s-7.56-1.43-10.42-4.28c-2.85-2.85-4.28-6.33-4.28-10.42s1.45-7.42,4.36-10.27c2.9-2.86,6.35-4.28,10.34-4.28h14.41v14.55Z"/>
    <rect class="cls-11" x="411.28" y="446.75" width="43.95" height="43.52"/>
  </g>
  <path class="cls-12" d="m323.95,271.81v8.67h-77.58c-28.32,0-39.15,10.64-59.47,29.52.34-.63.69-1.26,1.06-1.88,6.56-11.17,15.43-20.02,26.61-26.54,11.18-6.51,23.38-9.77,36.6-9.77h72.77Z"/>
  <polygon class="cls-12" points="411.71 198.61 411.71 209.97 353.06 224.94 353.06 213.45 411.71 198.61"/>
  <polygon class="cls-12" points="499.18 271.81 499.18 283.17 440.53 298.14 440.53 286.65 499.18 271.81"/>
  <rect class="cls-12" x="411.28" y="446.75" width="43.95" height="8.11"/>
  <circle class="cls-6" cx="359" cy="359" r="359"/>
</svg>