<?xml version="1.0" encoding="utf-8"?>
<!-- Generator: Adobe Illustrator 28.0.0, SVG Export Plug-In . SVG Version: 6.00 Build 0)  -->
<svg version="1.1" id="Layer_1" xmlns="http://www.w3.org/2000/svg" xmlns:xlink="http://www.w3.org/1999/xlink" x="0px" y="0px"
	 viewBox="0 0 718 718" style="enable-background:new 0 0 718 718;" xml:space="preserve">
<style type="text/css">
	.st0{fill:url(#SVGID_1_);}
	.st1{fill:none;stroke:#FFA300;stroke-width:30;stroke-miterlimit:10;}
	.st2{fill:url(#SVGID_00000047029001856940969190000014382362202309097918_);}
	.st3{fill:#FCE37C;}
	.st4{fill:url(#SVGID_00000178162781391448569360000017389726420076667275_);}
	.st5{fill:url(#SVGID_00000172403101636686925660000012329993564990468243_);}
	.st6{fill:url(#SVGID_00000178911014752064901650000013505944420889895080_);}
	.st7{fill:url(#SVGID_00000138552335953330184910000001379405263705946766_);}
	.st8{fill:#FFFFFF;}
	.st9{fill:url(#SVGID_00000073700287146221224550000010903743790496353188_);}
	.st10{fill:url(#SVGID_00000121974101651129462470000014441736134182523817_);}
	.st11{fill:url(#SVGID_00000181061067682369025770000010108167493025832840_);}
</style>
<g>
	<g id="Layer_1_00000123400681585564400440000012908287111171078528_">
		<g>
			
				<linearGradient id="SVGID_1_" gradientUnits="userSpaceOnUse" x1="129.3712" y1="1129.5737" x2="577.1036" y2="681.8412" gradientTransform="matrix(1 0 0 -1 0 1263.89)">
				<stop  offset="0" style="stop-color:#FF9500"/>
				<stop  offset="1" style="stop-color:#FF7A27"/>
			</linearGradient>
			<path class="st0" d="M662,347.1c0-105.8-53.2-199.2-134.4-254.9c-11-7.5-22.5-14.4-34.5-20.5c-7.5-3.8-15.2-7.4-23.1-10.6
				c-35.4-14.5-74.1-22.6-114.6-22.8c-0.7,0-1.4,0-2.1,0c-170.5,0-308.7,138.2-308.7,308.7c0,3.7,0.1,7.4,0.2,11.1
				c-0.1,3.7-0.2,7.4-0.2,11.1C44.5,539.8,182.7,678,353.2,678S662,539.8,662,369.3c0-3.7-0.1-7.4-0.2-11.1
				C661.9,354.5,662,350.8,662,347.1L662,347.1L662,347.1z"/>
			<path class="st1" d="M662,347.1c0-105.8-53.2-199.2-134.4-254.9c-11-7.5-22.5-14.4-34.5-20.5c-7.5-3.8-15.2-7.4-23.1-10.6
				c-35.4-14.5-74.1-22.6-114.6-22.8c-0.7,0-1.4,0-2.1,0c-170.5,0-308.7,138.2-308.7,308.7c0,3.7,0.1,7.4,0.2,11.1
				c-0.1,3.7-0.2,7.4-0.2,11.1C44.5,539.8,182.7,678,353.2,678S662,539.8,662,369.3c0-3.7-0.1-7.4-0.2-11.1
				C661.9,354.5,662,350.8,662,347.1L662,347.1L662,347.1z"/>
		</g>
		
			<linearGradient id="SVGID_00000110451556686121072780000007519408898028389810_" gradientUnits="userSpaceOnUse" x1="74.523" y1="1195.813" x2="705.8931" y2="564.4431" gradientTransform="matrix(1 0 0 -1 0 1263.89)">
			<stop  offset="0" style="stop-color:#FFD629"/>
			<stop  offset="1" style="stop-color:#FFA300"/>
		</linearGradient>
		<path style="fill:url(#SVGID_00000110451556686121072780000007519408898028389810_);" d="M670,346.8c0,3.8-0.1,7.6-0.2,11.4
			c-6,169.7-145.5,305.4-316.6,305.4c-45.6,0-89-9.7-128.2-27c-12.6-5.6-24.8-12-36.4-19.1c-7.4-4.5-14.7-9.4-21.7-14.5
			c-32.5-23.7-60.4-53.5-81.9-87.6c-28.9-45.8-46.3-99.5-48.4-157.2c-0.1-3.8-0.2-7.6-0.2-11.4C36.4,171.8,178.2,30,353.2,30
			c0.7,0,1.5,0,2.2,0c41.6,0.3,81.3,8.6,117.6,23.4c8.1,3.3,16,6.9,23.7,10.8c12.3,6.2,24.1,13.3,35.4,21
			C615.4,142.3,670,238.2,670,346.8L670,346.8L670,346.8L670,346.8z"/>
		<path class="st3" d="M670,346.8c0,1.9,0,3.7,0,5.6c-1.9-106.2-56.1-199.7-137.9-255.7c-11.3-7.7-23.1-14.8-35.4-21
			c-7.7-3.9-15.6-7.6-23.7-10.8C436.7,50,397,41.7,355.4,41.4c-0.7,0-1.4,0-2.2,0c-173.1,0-313.7,138.8-316.8,311.1
			c0-1.9,0-3.8,0-5.7C36.4,171.8,178.3,30,353.2,30c0.7,0,1.5,0,2.2,0c41.6,0.3,81.3,8.6,117.6,23.4c8.1,3.3,16,6.9,23.7,10.8
			c12.3,6.2,24.1,13.3,35.4,21C615.4,142.3,670.1,238.2,670,346.8L670,346.8L670,346.8z"/>
		
			<linearGradient id="SVGID_00000124861548577752194090000009504779006296384144_" gradientUnits="userSpaceOnUse" x1="113.6324" y1="1082.5624" x2="656.4924" y2="539.7024" gradientTransform="matrix(1 0 0 -1 0 1263.89)">
			<stop  offset="0" style="stop-color:#FFD629"/>
			<stop  offset="1" style="stop-color:#FFA300"/>
		</linearGradient>
		<path style="fill:url(#SVGID_00000124861548577752194090000009504779006296384144_);" d="M670,358.2c0,3.8-0.1,7.6-0.2,11.4
			C663.8,539.3,524.4,675,353.2,675c-45.6,0-89-9.7-128.2-27c-12.6-5.6-24.8-12-36.4-19.1c-7.4-4.5-14.7-9.4-21.7-14.5
			c-32.5-23.7-60.4-53.5-81.9-87.6C56.1,481,38.7,427.3,36.6,369.6c-0.1-3.8-0.2-7.6-0.2-11.4c0-1.9,0-3.8,0-5.7
			c0,1.9,0.1,3.8,0.2,5.7c2,57.6,19.5,111.4,48.4,157.2c21.5,34.1,49.3,63.9,81.9,87.6c7,5.1,14.2,10,21.7,14.5
			c11.7,7.1,23.8,13.5,36.4,19.1c39.2,17.4,82.6,27,128.3,27c171.2,0,310.6-135.7,316.6-305.4c0.1-1.9,0.1-3.9,0.2-5.8
			C670,354.3,670,356.2,670,358.2L670,358.2L670,358.2z"/>
		
			<linearGradient id="SVGID_00000150819450837951713230000007436914504883819674_" gradientUnits="userSpaceOnUse" x1="159.2066" y1="1028.2997" x2="547.2491" y2="640.2672" gradientTransform="matrix(1 0 0 -1 0 1263.89)">
			<stop  offset="0" style="stop-color:#FF9600"/>
			<stop  offset="1" style="stop-color:#FF6400"/>
		</linearGradient>
		<path style="fill:url(#SVGID_00000150819450837951713230000007436914504883819674_);" d="M670,369.6
			c0,175-141.8,316.8-316.8,316.8S36.4,544.6,36.4,369.6c0-3.8,0.1-7.6,0.2-11.4c6,169.7,145.5,305.4,316.6,305.4
			s310.6-135.7,316.6-305.4C670,362,670,365.8,670,369.6L670,369.6L670,369.6z"/>
		
			<linearGradient id="SVGID_00000099650634969936713870000006097649571906630035_" gradientUnits="userSpaceOnUse" x1="492.7829" y1="818.476" x2="213.6747" y2="1097.594" gradientTransform="matrix(1 0 0 -1 0 1263.89)">
			<stop  offset="0" style="stop-color:#FF9600"/>
			<stop  offset="1" style="stop-color:#FF6400"/>
		</linearGradient>
		<path style="fill:url(#SVGID_00000099650634969936713870000006097649571906630035_);" d="M579.5,346.8c0,4.1-0.1,8.2-0.3,12.2
			c-3-55.9-26.1-108-66-147.8c-42.7-42.7-99.6-66.3-160-66.3s-117.3,23.5-160,66.3c-39.8,39.8-63,91.9-65.9,147.8
			c-0.2-4.1-0.3-8.1-0.3-12.2c0-60.5,23.5-117.3,66.3-160s99.6-66.3,160-66.3s117.3,23.5,160,66.3S579.5,286.3,579.5,346.8z"/>
		
			<linearGradient id="SVGID_00000146459517967319009420000006799780107183112855_" gradientUnits="userSpaceOnUse" x1="534.95" y1="723.18" x2="179.94" y2="1078.1901" gradientTransform="matrix(1 0 0 -1 0 1263.89)">
			<stop  offset="0" style="stop-color:#FFA300"/>
			<stop  offset="1" style="stop-color:#FF8827"/>
		</linearGradient>
		<path style="fill:url(#SVGID_00000146459517967319009420000006799780107183112855_);" d="M579.2,359c-3,55.9-26.1,108-66,147.8
			c-42.7,42.7-99.6,66.3-160,66.3s-117.3-23.5-160-66.3c-39.8-39.9-63-91.9-65.9-147.8c2.9-55.9,26.1-108,65.9-147.8
			c42.7-42.7,99.6-66.3,160-66.3s117.3,23.5,160,66.3C553.1,251,576.3,303.1,579.2,359L579.2,359L579.2,359z"/>
		<path class="st3" d="M579.2,373.7c-3,55.9-26.1,108-66,147.8c-42.7,42.7-99.6,66.3-160,66.3s-117.3-23.5-160-66.3
			c-39.8-39.9-63-91.9-65.9-147.8c0.1-2.5,0.3-4.9,0.5-7.3c4.5,53.1,27.3,102.4,65.4,140.5c42.7,42.7,99.6,66.3,160,66.3
			s117.3-23.5,160-66.3c38.1-38.1,60.9-87.4,65.5-140.5C578.9,368.8,579.1,371.2,579.2,373.7L579.2,373.7L579.2,373.7z"/>
		<path class="st3" d="M193.2,506.8c5.8,5.8,11.9,11.2,18.1,16.3L166.9,603c-32.5-23.7-60.4-53.5-81.9-87.6l53.7-96.4
			C149.6,451.7,168.1,481.7,193.2,506.8L193.2,506.8L193.2,506.8z"/>
		<path class="st3" d="M473,53.4l-44.5,79.9c-23.9-8.4-49.2-12.8-75.3-12.8c-17.6,0-34.8,2-51.5,5.9L355.4,30
			C397,30.3,436.7,38.5,473,53.4L473,53.4L473,53.4z"/>
		<path class="st3" d="M232.6,538.3c11.6,7.4,23.9,13.6,36.7,18.7L225,636.6c-12.6-5.6-24.8-12-36.4-19.1L232.6,538.3L232.6,538.3
			L232.6,538.3z"/>
		<path class="st3" d="M532.1,85.3l-44.3,79.5c-11.1-8.2-22.9-15.4-35.2-21.4l44.1-79.1L532.1,85.3
			C532.1,85.3,532.1,85.3,532.1,85.3z"/>
		<path class="st8" d="M127.3,220.9l-13.1-26.2c-3.4-6.8-8.9-12.3-15.7-15.7l-26.2-13.1l26.2-13.1c6.8-3.4,12.3-8.9,15.7-15.7
			l13.1-26.2l13.1,26.2c3.4,6.8,8.9,12.3,15.7,15.7l26.2,13.1L156.1,179c-6.8,3.4-12.3,8.9-15.7,15.7L127.3,220.9L127.3,220.9
			L127.3,220.9z"/>
		<path class="st8" d="M76.7,243.9l-6.3-12.7c-1.7-3.3-4.3-6-7.6-7.6L50,217.2l12.7-6.4c3.3-1.6,6-4.3,7.6-7.6l6.3-12.7l6.3,12.7
			c1.7,3.3,4.3,6,7.6,7.6l12.7,6.4l-12.7,6.4c-3.3,1.6-6,4.3-7.6,7.6L76.7,243.9z"/>
		<g>
			<g>
				
					<linearGradient id="SVGID_00000005263747013729599780000009045623102677288881_" gradientUnits="userSpaceOnUse" x1="544.8086" y1="121.7822" x2="159.0001" y2="514.7886" gradientTransform="matrix(0.995 -9.947488e-02 9.947488e-02 0.995 -34.6428 34.3075)">
					<stop  offset="0" style="stop-color:#FF9600"/>
					<stop  offset="1" style="stop-color:#FF6400"/>
				</linearGradient>
				<path style="fill:url(#SVGID_00000005263747013729599780000009045623102677288881_);" d="M233.9,229.8l242.2,44.5l-22.2,25.2
					l-124.4,24.5l4.7,27.4l109.8,21.9l-22.2,25.2l-75.7,13.8l44.5,79.7L368.3,517l-92.7,21.9l-64-284L233.9,229.8z"/>
			</g>
			<g>
				
					<linearGradient id="SVGID_00000165916031552624627630000011284178279330376846_" gradientUnits="userSpaceOnUse" x1="481.6802" y1="190.3499" x2="222.5345" y2="449.4956" gradientTransform="matrix(0.995 -9.947488e-02 9.947488e-02 0.995 -34.6428 34.3075)">
					<stop  offset="0" style="stop-color:#FFD629"/>
					<stop  offset="1" style="stop-color:#FFA300"/>
				</linearGradient>
				<path style="fill:url(#SVGID_00000165916031552624627630000011284178279330376846_);" d="M477.5,187.2l-1.4,87.1l-124.4,24.5
					l4.7,27.4l88.3-11.6l-0.8,58.7L368.3,387l22.3,104.9l-92.7,21.9l-64-284L477.5,187.2z"/>
			</g>
			<g>
				<polygon class="st3" points="390.5,491.8 378.9,494.6 358.2,407.9 368.3,387 				"/>
			</g>
			<g>
				<polygon class="st3" points="444.7,314.5 443.9,373.2 436.6,374.5 433.4,325.8 367.4,332 356.4,326.1 				"/>
				<polygon class="st3" points="477.5,187.2 476.1,274.2 457.5,277.9 458.5,207.3 238.4,249.7 233.9,229.8 				"/>
			</g>
		</g>
		
			<radialGradient id="SVGID_00000148662623117306253060000014252095513258846141_" cx="359" cy="358.89" r="359" gradientTransform="matrix(1 0 0 -1 0 717.89)" gradientUnits="userSpaceOnUse">
			<stop  offset="0" style="stop-color:#FFF796;stop-opacity:0.3"/>
			<stop  offset="1" style="stop-color:#000000;stop-opacity:0"/>
		</radialGradient>
		<circle style="fill:url(#SVGID_00000148662623117306253060000014252095513258846141_);" cx="359" cy="359" r="359"/>
	</g>
</g>
</svg>
