<svg width="1080" height="1920" viewBox="0 0 1080 1920" fill="none" xmlns="http://www.w3.org/2000/svg">
<g clip-path="url(#clip0_1_2)">
<rect width="1080" height="1920" fill="#100226"/>
<path d="M0 0H1080V1920H0V0Z" fill="url(#paint0_radial_1_2)"/>
<g filter="url(#filter0_f_1_2)">
<ellipse cx="540" cy="2035" rx="441" ry="257" fill="#9771F9" fill-opacity="0.09"/>
</g>
<g filter="url(#filter1_d_1_2)">
<path d="M113.251 734.204L112.434 736.23L113.082 738.315L111.057 737.498L108.971 738.146L109.789 736.121L109.14 734.035L111.166 734.853L113.251 734.204Z" fill="#D9D9D9"/>
<path d="M184.251 579.204L183.434 581.23L184.082 583.315L182.057 582.498L179.971 583.146L180.789 581.121L180.14 579.035L182.166 579.853L184.251 579.204Z" fill="#D9D9D9"/>
<path d="M644.233 521.291L643.223 523.793L644.024 526.369L641.522 525.36L638.945 526.161L639.955 523.659L639.154 521.082L641.656 522.092L644.233 521.291Z" fill="#D9D9D9"/>
<path d="M715.233 366.291L714.223 368.793L715.024 371.369L712.522 370.36L709.945 371.161L710.955 368.659L710.154 366.082L712.656 367.092L715.233 366.291Z" fill="#D9D9D9"/>
<path d="M916.15 845.035L913.24 845.231L911.109 847.224L910.914 844.313L908.921 842.183L911.832 841.987L913.962 839.994L914.158 842.905L916.15 845.035Z" fill="#D9D9D9"/>
<path d="M987.15 690.035L984.24 690.231L982.109 692.224L981.914 689.313L979.921 687.183L982.832 686.987L984.962 684.994L985.158 687.905L987.15 690.035Z" fill="#D9D9D9"/>
<path d="M933.364 362.249L930.453 362.444L928.323 364.437L928.127 361.526L926.134 359.396L929.045 359.2L931.175 357.208L931.371 360.118L933.364 362.249Z" fill="#D9D9D9"/>
<path d="M1004.36 207.249L1001.45 207.444L999.323 209.437L999.127 206.526L997.134 204.396L1000.04 204.2L1002.18 202.208L1002.37 205.118L1004.36 207.249Z" fill="#D9D9D9"/>
<path d="M671.164 754.908L670.183 752.16L667.685 750.653L670.432 749.672L671.94 747.175L672.92 749.922L675.418 751.429L672.671 752.41L671.164 754.908Z" fill="#D9D9D9"/>
<path d="M742.164 599.908L741.183 597.16L738.685 595.653L741.432 594.672L742.94 592.175L743.92 594.922L746.418 596.429L743.671 597.41L742.164 599.908Z" fill="#D9D9D9"/>
<path d="M688.377 272.121L687.396 269.374L684.899 267.867L687.646 266.886L689.153 264.388L690.134 267.135L692.632 268.642L689.884 269.623L688.377 272.121Z" fill="#D9D9D9"/>
<path d="M759.377 117.121L758.396 114.374L755.899 112.867L758.646 111.886L760.153 109.388L761.134 112.135L763.632 113.642L760.884 114.623L759.377 117.121Z" fill="#D9D9D9"/>
<path d="M420.455 393.674L416.103 393.966L412.916 396.947L412.624 392.594L409.644 389.408L413.997 389.115L417.183 386.135L417.475 390.488L420.455 393.674Z" fill="#D9D9D9"/>
<path d="M491.455 238.674L487.103 238.966L483.916 241.947L483.624 237.594L480.644 234.408L484.997 234.115L488.183 231.135L488.475 235.488L491.455 238.674Z" fill="#D9D9D9"/>
<path d="M280.011 812L281.458 815.052L284.511 816.5L281.458 817.948L280.011 821L278.563 817.948L275.511 816.5L278.563 815.052L280.011 812Z" fill="#D9D9D9"/>
<path d="M351.011 657L352.458 660.052L355.511 661.5L352.458 662.948L351.011 666L349.563 662.948L346.511 661.5L349.563 660.052L351.011 657Z" fill="#D9D9D9"/>
<path d="M67.7408 1700.2L66.9234 1702.23L67.5718 1704.32L65.5463 1703.5L63.4605 1704.15L64.2779 1702.12L63.6295 1700.04L65.655 1700.85L67.7408 1700.2Z" fill="#D9D9D9"/>
<path d="M138.741 1545.2L137.923 1547.23L138.572 1549.32L136.546 1548.5L134.461 1549.15L135.278 1547.12L134.629 1545.04L136.655 1545.85L138.741 1545.2Z" fill="#D9D9D9"/>
<path d="M598.722 1487.29L597.712 1489.79L598.513 1492.37L596.011 1491.36L593.435 1492.16L594.445 1489.66L593.644 1487.08L596.146 1488.09L598.722 1487.29Z" fill="#D9D9D9"/>
<path d="M669.722 1332.29L668.712 1334.79L669.513 1337.37L667.011 1336.36L664.435 1337.16L665.445 1334.66L664.644 1332.08L667.146 1333.09L669.722 1332.29Z" fill="#D9D9D9"/>
<path d="M870.64 1811.04L867.729 1811.23L865.599 1813.22L865.403 1810.31L863.41 1808.18L866.321 1807.99L868.451 1805.99L868.647 1808.9L870.64 1811.04Z" fill="#D9D9D9"/>
<path d="M941.64 1656.04L938.729 1656.23L936.599 1658.22L936.403 1655.31L934.41 1653.18L937.321 1652.99L939.451 1650.99L939.647 1653.9L941.64 1656.04Z" fill="#D9D9D9"/>
<path d="M887.853 1328.25L884.942 1328.44L882.812 1330.44L882.617 1327.53L880.624 1325.4L883.534 1325.2L885.665 1323.21L885.86 1326.12L887.853 1328.25Z" fill="#D9D9D9"/>
<path d="M958.853 1173.25L955.942 1173.44L953.812 1175.44L953.617 1172.53L951.624 1170.4L954.534 1170.2L956.665 1168.21L956.86 1171.12L958.853 1173.25Z" fill="#D9D9D9"/>
<path d="M625.653 1720.91L624.672 1718.16L622.175 1716.65L624.922 1715.67L626.429 1713.17L627.41 1715.92L629.908 1717.43L627.16 1718.41L625.653 1720.91Z" fill="#D9D9D9"/>
<path d="M696.653 1565.91L695.672 1563.16L693.175 1561.65L695.922 1560.67L697.429 1558.17L698.41 1560.92L700.908 1562.43L698.16 1563.41L696.653 1565.91Z" fill="#D9D9D9"/>
<path d="M98.8665 201.121L97.8857 198.374L95.3879 196.867L98.1353 195.886L99.6424 193.388L100.623 196.135L103.121 197.642L100.374 198.623L98.8665 201.121Z" fill="#D9D9D9"/>
<path d="M642.867 1238.12L641.886 1235.37L639.388 1233.87L642.135 1232.89L643.642 1230.39L644.623 1233.14L647.121 1234.64L644.374 1235.62L642.867 1238.12Z" fill="#D9D9D9"/>
<path d="M713.867 1083.12L712.886 1080.37L710.388 1078.87L713.135 1077.89L714.642 1075.39L715.623 1078.14L718.121 1079.64L715.374 1080.62L713.867 1083.12Z" fill="#D9D9D9"/>
<path d="M374.945 1359.67L370.592 1359.97L367.406 1362.95L367.113 1358.59L364.133 1355.41L368.486 1355.12L371.672 1352.13L371.965 1356.49L374.945 1359.67Z" fill="#D9D9D9"/>
<path d="M445.945 1204.67L441.592 1204.97L438.406 1207.95L438.113 1203.59L435.133 1200.41L439.486 1200.12L442.672 1197.13L442.965 1201.49L445.945 1204.67Z" fill="#D9D9D9"/>
<path d="M233 1778L233.965 1780.03L236 1781L233.965 1781.97L233 1784L232.035 1781.97L230 1781L232.035 1780.03L233 1778Z" fill="#D9D9D9"/>
<path d="M376.744 1815.56L376.346 1817.78L377.441 1819.74L375.224 1819.35L373.255 1820.44L373.653 1818.22L372.559 1816.26L374.776 1816.65L376.744 1815.56Z" fill="#D9D9D9"/>
<path d="M513.474 1868.72L515.428 1869.84L517.649 1869.47L516.528 1871.43L516.896 1873.65L514.943 1872.53L512.721 1872.9L513.842 1870.94L513.474 1868.72Z" fill="#D9D9D9"/>
<path d="M609.464 1785.71L611.418 1786.83L613.639 1786.46L612.519 1788.42L612.886 1790.64L610.933 1789.52L608.711 1789.89L609.832 1787.93L609.464 1785.71Z" fill="#D9D9D9"/>
<path d="M237.5 1686L237.983 1687.02L239 1687.5L237.983 1687.98L237.5 1689L237.017 1687.98L236 1687.5L237.017 1687.02L237.5 1686Z" fill="#D9D9D9"/>
<path d="M448.5 1683L448.983 1684.02L450 1684.5L448.983 1684.98L448.5 1686L448.017 1684.98L447 1684.5L448.017 1684.02L448.5 1683Z" fill="#D9D9D9"/>
<path d="M524.5 1555L524.983 1556.02L526 1556.5L524.983 1556.98L524.5 1558L524.017 1556.98L523 1556.5L524.017 1556.02L524.5 1555Z" fill="#D9D9D9"/>
<path d="M744.5 1721L744.983 1722.02L746 1722.5L744.983 1722.98L744.5 1724L744.017 1722.98L743 1722.5L744.017 1722.02L744.5 1721Z" fill="#D9D9D9"/>
<path d="M778.5 1869L778.983 1870.02L780 1870.5L778.983 1870.98L778.5 1872L778.017 1870.98L777 1870.5L778.017 1870.02L778.5 1869Z" fill="#D9D9D9"/>
<path d="M880.5 1507L880.983 1508.02L882 1508.5L880.983 1508.98L880.5 1510L880.017 1508.98L879 1508.5L880.017 1508.02L880.5 1507Z" fill="#D9D9D9"/>
<path d="M982.5 1834L982.983 1835.02L984 1835.5L982.983 1835.98L982.5 1837L982.017 1835.98L981 1835.5L982.017 1835.02L982.5 1834Z" fill="#D9D9D9"/>
<path d="M190.5 1266L190.983 1267.02L192 1267.5L190.983 1267.98L190.5 1269L190.017 1267.98L189 1267.5L190.017 1267.02L190.5 1266Z" fill="#D9D9D9"/>
<path d="M101.5 1368L101.983 1369.02L103 1369.5L101.983 1369.98L101.5 1371L101.017 1369.98L100 1369.5L101.017 1369.02L101.5 1368Z" fill="#D9D9D9"/>
<path d="M513.5 1253L513.983 1254.02L515 1254.5L513.983 1254.98L513.5 1256L513.017 1254.98L512 1254.5L513.017 1254.02L513.5 1253Z" fill="#D9D9D9"/>
<path d="M108.5 33L109.948 36.0522L113 37.5L109.948 38.9478L108.5 42L107.052 38.9478L104 37.5L107.052 36.0522L108.5 33Z" fill="#D9D9D9"/>
<path d="M32.5 1893L33.9478 1896.05L37 1897.5L33.9478 1898.95L32.5 1902L31.0522 1898.95L28 1897.5L31.0522 1896.05L32.5 1893Z" fill="#D9D9D9"/>
<path d="M103.5 1738L104.948 1741.05L108 1742.5L104.948 1743.95L103.5 1747L102.052 1743.95L99 1742.5L102.052 1741.05L103.5 1738Z" fill="#D9D9D9"/>
<path d="M334.5 1689L335.304 1690.7L337 1691.5L335.304 1692.3L334.5 1694L333.696 1692.3L332 1691.5L333.696 1690.7L334.5 1689Z" fill="#D9D9D9"/>
<path d="M407.5 1534L408.948 1537.05L412 1538.5L408.948 1539.95L407.5 1543L406.052 1539.95L403 1538.5L406.052 1537.05L407.5 1534Z" fill="#D9D9D9"/>
<path d="M239.135 1521.13L238.842 1522.22L239.304 1523.24L238.216 1522.95L237.189 1523.41L237.482 1522.33L237.02 1521.3L238.107 1521.59L239.135 1521.13Z" fill="#D9D9D9"/>
<path d="M312.418 1368.07L311.541 1371.34L312.925 1374.42L309.663 1373.54L306.582 1374.93L307.459 1371.66L306.075 1368.58L309.337 1369.46L312.418 1368.07Z" fill="#D9D9D9"/>
<path d="M138.945 1104.67L134.592 1104.96L131.406 1107.94L131.113 1103.59L128.133 1100.41L132.486 1100.11L135.672 1097.13L135.965 1101.49L138.945 1104.67Z" fill="#D9D9D9"/>
<path d="M73.9448 901.672L69.5919 901.965L66.4058 904.945L66.1134 900.592L63.1332 897.406L67.4861 897.113L70.6722 894.133L70.9645 898.486L73.9448 901.672Z" fill="#D9D9D9"/>
<path d="M982.945 1061.67L978.592 1061.96L975.406 1064.94L975.113 1060.59L972.133 1057.41L976.486 1057.11L979.672 1054.13L979.965 1058.49L982.945 1061.67Z" fill="#D9D9D9"/>
<path d="M1022.86 692.769L1022.14 697.072L1024.31 700.858L1020.01 700.142L1016.22 702.309L1016.94 698.006L1014.77 694.22L1019.07 694.936L1022.86 692.769Z" fill="#D9D9D9"/>
<path d="M356.5 1072L356.983 1073.02L358 1073.5L356.983 1073.98L356.5 1075L356.017 1073.98L355 1073.5L356.017 1073.02L356.5 1072Z" fill="#D9D9D9"/>
<path d="M312.5 1180L312.983 1181.02L314 1181.5L312.983 1181.98L312.5 1183L312.017 1181.98L311 1181.5L312.017 1181.02L312.5 1180Z" fill="#D9D9D9"/>
<path d="M891.5 1189L891.983 1190.02L893 1190.5L891.983 1190.98L891.5 1192L891.017 1190.98L890 1190.5L891.017 1190.02L891.5 1189Z" fill="#D9D9D9"/>
<path d="M1029.5 494L1029.98 495.017L1031 495.5L1029.98 495.983L1029.5 497L1029.02 495.983L1028 495.5L1029.02 495.017L1029.5 494Z" fill="#D9D9D9"/>
<path d="M858.5 244L858.983 245.017L860 245.5L858.983 245.983L858.5 247L858.017 245.983L857 245.5L858.017 245.017L858.5 244Z" fill="#D9D9D9"/>
<path d="M1043.5 368L1043.98 369.017L1045 369.5L1043.98 369.983L1043.5 371L1043.02 369.983L1042 369.5L1043.02 369.017L1043.5 368Z" fill="#D9D9D9"/>
<path d="M207.5 268L207.983 269.017L209 269.5L207.983 269.983L207.5 271L207.017 269.983L206 269.5L207.017 269.017L207.5 268Z" fill="#D9D9D9"/>
<path d="M118.5 448L118.983 449.017L120 449.5L118.983 449.983L118.5 451L118.017 449.983L117 449.5L118.017 449.017L118.5 448Z" fill="#D9D9D9"/>
<path d="M264 362L264.643 363.357L266 364L264.643 364.643L264 366L263.357 364.643L262 364L263.357 363.357L264 362Z" fill="#D9D9D9"/>
<path d="M71 271L71.6435 272.357L73 273L71.6435 273.643L71 275L70.3565 273.643L69 273L70.3565 272.357L71 271Z" fill="#D9D9D9"/>
<path d="M378.5 20L378.983 21.0174L380 21.5L378.983 21.9826L378.5 23L378.017 21.9826L377 21.5L378.017 21.0174L378.5 20Z" fill="#D9D9D9"/>
<path d="M1009.5 39L1009.98 40.0174L1011 40.5L1009.98 40.9826L1009.5 42L1009.02 40.9826L1008 40.5L1009.02 40.0174L1009.5 39Z" fill="#D9D9D9"/>
<path d="M277.5 85L277.983 86.0174L279 86.5L277.983 86.9826L277.5 88L277.017 86.9826L276 86.5L277.017 86.0174L277.5 85Z" fill="#D9D9D9"/>
<path d="M644.5 20L644.983 21.0174L646 21.5L644.983 21.9826L644.5 23L644.017 21.9826L643 21.5L644.017 21.0174L644.5 20Z" fill="#D9D9D9"/>
<path d="M342 194L342.643 195.357L344 196L342.643 196.643L342 198L341.357 196.643L340 196L341.357 195.357L342 194Z" fill="#D9D9D9"/>
<path d="M1055.5 241L1055.98 242.017L1057 242.5L1055.98 242.983L1055.5 244L1055.02 242.983L1054 242.5L1055.02 242.017L1055.5 241Z" fill="#D9D9D9"/>
<path d="M1061.5 872L1061.98 873.017L1063 873.5L1061.98 873.983L1061.5 875L1061.02 873.983L1060 873.5L1061.02 873.017L1061.5 872Z" fill="#D9D9D9"/>
</g>
</g>
<defs>
<filter id="filter0_f_1_2" x="-21.3" y="1657.7" width="1122.6" height="754.6" filterUnits="userSpaceOnUse" color-interpolation-filters="sRGB">
<feFlood flood-opacity="0" result="BackgroundImageFix"/>
<feBlend mode="normal" in="SourceGraphic" in2="BackgroundImageFix" result="shape"/>
<feGaussianBlur stdDeviation="60.15" result="effect1_foregroundBlur_1_2"/>
</filter>
<filter id="filter1_d_1_2" x="20.8" y="12.8" width="1049.4" height="1896.4" filterUnits="userSpaceOnUse" color-interpolation-filters="sRGB">
<feFlood flood-opacity="0" result="BackgroundImageFix"/>
<feColorMatrix in="SourceAlpha" type="matrix" values="0 0 0 0 0 0 0 0 0 0 0 0 0 0 0 0 0 0 127 0" result="hardAlpha"/>
<feOffset/>
<feGaussianBlur stdDeviation="3.6"/>
<feComposite in2="hardAlpha" operator="out"/>
<feColorMatrix type="matrix" values="0 0 0 0 1 0 0 0 0 1 0 0 0 0 1 0 0 0 0.5 0"/>
<feBlend mode="normal" in2="BackgroundImageFix" result="effect1_dropShadow_1_2"/>
<feBlend mode="normal" in="SourceGraphic" in2="effect1_dropShadow_1_2" result="shape"/>
</filter>
<radialGradient id="paint0_radial_1_2" cx="0" cy="0" r="1" gradientUnits="userSpaceOnUse" gradientTransform="translate(540 741) rotate(90) scale(831 876.157)">
<stop stop-color="#4B3975" stop-opacity="0.33"/>
<stop offset="1" stop-color="#100226"/>
</radialGradient>
<clipPath id="clip0_1_2">
<rect width="1080" height="1920" fill="white"/>
</clipPath>
</defs>
</svg>
